<svg aria-hidden="true" style="width:0;height:0;position:absolute;overflow:hidden" xmlns="http://www.w3.org/2000/svg"><defs><symbol id="icon-hero-arrow-right" viewBox="0 0 32 32"><path fill="none" stroke="#fff" style="stroke:var(--color1,#fff)" stroke-linejoin="round" stroke-linecap="round" stroke-width="4" d="M6.666 16h18.667M16 6.667 25.333 16 16 25.333"/></symbol><symbol id="icon-Discord" viewBox="0 0 32 32"><path fill="#c8c7d8" style="fill:var(--color1,#c8c7d8)" d="M27.089 5.543a26.392 26.392 0 0 0-6.514-2.02.098.098 0 0 0-.105.05 18.37 18.37 0 0 0-.811 1.666 24.378 24.378 0 0 0-7.316 0 16.725 16.725 0 0 0-.824-1.666.103.103 0 0 0-.105-.05 26.313 26.313 0 0 0-6.513 2.02.091.091 0 0 0-.043.037C.709 11.778-.427 17.823.131 23.794a.112.112 0 0 0 .042.075 26.531 26.531 0 0 0 7.991 4.039.103.103 0 0 0 .112-.037 19.005 19.005 0 0 0 1.635-2.659.102.102 0 0 0-.055-.141c-.87-.33-1.699-.733-2.496-1.19a.103.103 0 0 1-.01-.17c.168-.126.336-.257.496-.389a.099.099 0 0 1 .103-.014c5.237 2.391 10.907 2.391 16.082 0a.1.1 0 0 1 .105.013c.16.132.328.264.497.39a.102.102 0 0 1-.009.17c-.797.466-1.626.86-2.497 1.188a.102.102 0 0 0-.054.142 21.382 21.382 0 0 0 1.633 2.658.102.102 0 0 0 .112.038 26.448 26.448 0 0 0 8.003-4.039.104.104 0 0 0 .042-.074c.667-6.903-1.118-12.899-4.731-18.214a.082.082 0 0 0-.042-.038zM10.693 20.158c-1.577 0-2.876-1.447-2.876-3.225s1.274-3.225 2.876-3.225c1.614 0 2.901 1.46 2.876 3.225 0 1.778-1.274 3.225-2.876 3.225zm10.633 0c-1.577 0-2.876-1.447-2.876-3.225s1.274-3.225 2.876-3.225c1.614 0 2.901 1.46 2.876 3.225 0 1.778-1.261 3.225-2.876 3.225z"/></symbol><symbol id="icon-Twitter" viewBox="0 0 32 32"><path fill="#c8c7d8" style="fill:var(--color1,#c8c7d8)" d="M10.067 29.001c12.073 0 18.678-10.004 18.678-18.678 0-.281-.006-.569-.019-.85A13.31 13.31 0 0 0 32 6.074c-1.197.532-2.467.88-3.768 1.031a6.598 6.598 0 0 0 2.887-3.631 13.2 13.2 0 0 1-4.168 1.593 6.57 6.57 0 0 0-7.888-1.291 6.572 6.572 0 0 0-3.304 7.278A18.65 18.65 0 0 1 2.23 4.199c-.838 1.445-1.095 3.155-.717 4.782s1.36 3.05 2.748 3.979a6.57 6.57 0 0 1-2.974-.819v.081a6.56 6.56 0 0 0 5.268 6.438 6.532 6.532 0 0 1-2.962.113 6.577 6.577 0 0 0 6.13 4.563A13.168 13.168 0 0 1 0 26.052a18.625 18.625 0 0 0 10.067 2.949z"/></symbol><symbol id="icon-external-link" viewBox="0 0 32 32"><path fill="none" stroke="#c8c7d8" style="stroke:var(--color1,#c8c7d8)" stroke-linejoin="round" stroke-linecap="round" stroke-width="4" d="M24 17.333v8A2.668 2.668 0 0 1 21.333 28H6.666a2.668 2.668 0 0 1-2.667-2.667V10.666a2.668 2.668 0 0 1 2.667-2.667h8M20 4h8v8M13.333 18.667 28 4"/></symbol><symbol id="icon-cta_arrow-right" viewBox="0 0 32 32"><path fill="none" stroke="#6966ff" style="stroke:var(--color1,#6966ff)" stroke-linejoin="round" stroke-linecap="round" stroke-width="4" d="M6.666 16h18.667M16 6.667 25.333 16 16 25.333"/></symbol><symbol id="icon-Right-arrow-curved" viewBox="0 0 11 32"><path fill="#6966ff" style="fill:var(--color1,#6966ff)" d="M10.634 14.03c-.017-.072-.046-.15-.064-.174s-.012-.053.015-.066c.062-.03.064-.167.002-.167-.028 0-.025-.037.008-.093.043-.073.04-.114-.013-.191-.051-.074-.053-.102-.01-.113s.044-.037.003-.108c-.037-.063-.039-.101-.005-.118.027-.014.053-.095.057-.181.006-.122-.016-.168-.099-.213-.058-.032-.083-.057-.056-.057.055 0 .085-.429.035-.492-.017-.021-.026-.147-.02-.278.009-.203-.005-.252-.095-.327-.082-.068-.094-.099-.051-.139.079-.074.054-.369-.035-.42-.06-.034-.063-.053-.014-.098.043-.04.045-.06.006-.07-.034-.009-.054-.129-.055-.328-.001-.173-.035-.406-.076-.518s-.07-.259-.063-.326c.007-.067-.01-.143-.037-.169s-.05-.079-.051-.119c-.004-.152-.066-.372-.126-.443-.034-.041-.061-.143-.06-.226s-.019-.184-.046-.222c-.027-.039-.064-.15-.083-.247s-.053-.176-.076-.176-.042-.03-.042-.066-.032-.102-.072-.145c-.039-.044-.059-.106-.043-.138s-.016-.125-.07-.206c-.062-.092-.081-.156-.05-.17s.031-.04.005-.066c-.024-.024-.111-.182-.194-.353s-.192-.351-.243-.401c-.051-.05-.081-.115-.066-.145.018-.036-.007-.053-.08-.053-.08 0-.094-.012-.057-.046.034-.032.029-.091-.017-.195-.037-.082-.067-.153-.067-.158s-.049-.01-.108-.01c-.078 0-.09-.009-.043-.032.054-.026.054-.045 0-.111-.035-.044-.077-.079-.094-.079s-.044-.071-.062-.158c-.046-.229-.175-.473-.25-.473-.036 0-.065-.024-.065-.054s-.053-.098-.119-.153c-.065-.055-.107-.113-.094-.131s-.019-.061-.073-.096c-.054-.036-.098-.103-.098-.149 0-.051-.029-.084-.073-.084-.04 0-.093-.042-.118-.093s-.084-.093-.13-.093c-.063 0-.069-.008-.023-.031.049-.024.045-.054-.024-.148-.047-.064-.113-.117-.146-.117s-.06-.034-.06-.074-.017-.074-.038-.074c-.021 0-.085-.075-.143-.167s-.126-.167-.153-.167-.048-.025-.048-.056-.043-.056-.096-.056-.096-.025-.096-.056-.021-.056-.048-.056-.048-.021-.048-.046c0-.069-.286-.317-.289-.25-.001.031-.029-.003-.062-.074s-.118-.178-.189-.237c-.071-.059-.129-.122-.129-.139s-.032-.032-.071-.032c-.039 0-.101-.046-.139-.103s-.168-.169-.288-.248c-.121-.08-.219-.163-.219-.185 0-.05-.278-.242-.352-.242-.03 0-.091-.05-.135-.11s-.136-.12-.203-.134c-.067-.013-.123-.042-.123-.064 0-.065-.25-.248-.339-.248-.045 0-.094-.025-.109-.056S3.669.867 3.625.867 3.51.838 3.468.802a.694.694 0 0 0-.38-.158c-.049 0-.137-.032-.196-.072s-.135-.063-.17-.053c-.038.011-.06-.006-.056-.045.011-.097-.09-.102-.154-.008-.031.046-.048.058-.036.025C2.494.44 2.36.309 2.289.309c-.013 0-.114-.044-.223-.097-.165-.081-.215-.09-.29-.053-.065.032-.108.033-.153.004-.066-.043-.217-.015-.217.04 0 .018-.02.033-.043.033S1.331.203 1.345.162c.017-.05.001-.074-.046-.074a.224.224 0 0 1-.13-.055c-.052-.048-.074-.046-.18.019C.857.132.69.15.69.084.69.054.673.054.628.082a.26.26 0 0 1-.166.019C.324.073.195.174.237.276c.019.046.058.069.099.057.038-.011.067.002.067.03 0 .054-.131.093-.227.068C.143.422.116.392.116.363.116.296.039.294.006.361c-.014.028.017.078.067.111.1.067.234.082.234.026 0-.042.204-.037.243.006.015.017.079.038.141.047s.132.042.154.073c.022.031.1.056.173.056.084 0 .189.043.287.118a.509.509 0 0 0 .32.121c.123.002.164.019.164.068 0 .059.047.08.126.056.017-.005.047.026.068.07.029.06.067.075.161.061.091-.014.123-.003.123.042 0 .033.022.06.048.06s.048.025.048.056.023.056.051.056.085.026.126.058c.053.041.09.046.126.019.077-.06.133-.047.118.025-.008.038.016.065.058.065.039 0 .084.033.1.074s.053.07.084.065c.03-.005.055.013.055.04s.052.087.115.133c.107.078.117.079.138.016.016-.047.024-.038.028.031s.066.136.208.222c.304.186.376.25.361.32-.009.042.023.068.094.075.065.007.108.038.108.077 0 .037.076.096.179.138.099.04.182.089.186.108.023.125.095.213.203.248.069.022.141.038.161.034s.039.015.043.04c.004.025.012.063.018.083s.014.068.017.106c.004.05.032.064.101.05.076-.015.096-.001.096.07 0 .049.024.089.054.089.07 0 .261.16.35.294.038.058.103.115.143.127s.073.055.073.095.017.081.037.091c.02.01.031-.052.024-.137-.012-.138-.007-.146.043-.07.038.058.083.077.144.062.108-.027.113.012.013.097-.068.058-.064.072.05.161.069.053.102.097.075.097-.065 0-.065.101 0 .118.028.007.057.046.065.087.009.046.051.074.113.074.137 0 .18.044.108.11-.04.038-.043.057-.008.057.029 0 .066.042.083.093s.06.093.097.093c.042 0 .067.041.067.114 0 .11.197.375.354.477.041.027.064.062.051.079s.019.09.071.163c.053.073.085.132.071.132-.05 0 .139.243.225.29.049.027.076.065.061.085s-.008.056.018.081.062.12.08.212.085.229.149.305c.063.076.115.173.115.214s.036.138.079.214c.043.076.075.153.07.171s.036.07.091.116c.073.06.092.109.069.178a.18.18 0 0 0 .045.18.421.421 0 0 1 .076.244c0 .104.024.167.068.18.037.011.08.045.095.075s.006.045-.02.032c-.027-.013-.034.003-.018.035s.064.059.107.06.056.01.03.019c-.058.019-.031.312.029.312.023 0 .028.026.012.059-.024.049.018.185.165.535.032.076.052.2.077.478.012.13.042.247.067.26.044.022.057.115.074.542.004.102.028.197.052.21s.05.097.057.185l.015.183a.59.59 0 0 0 .118.126c.097.087.105.112.051.154a.238.238 0 0 1-.113.05c-.068 0-.008.519.07.608.045.051.049.09.012.143-.029.042-.035.13-.016.207.019.074.041.544.049 1.044s.017.946.018.992c.002.046.052.121.111.167l.107.083-.113.012c-.101.011-.11.027-.086.144a.416.416 0 0 0 .109.201c.077.066.076.07-.016.07-.079 0-.098.026-.104.139-.017.326-.002.506.047.551.039.036.034.064-.021.106-.091.071-.104.762-.015.807.035.017.025.027-.029.028-.09.001-.107.107-.04.242.024.048.015.087-.027.111-.035.02-.076.137-.091.26s-.035.272-.044.333c-.009.061.004.121.03.134.029.014.023.042-.016.075-.074.061-.108.33-.042.33.025 0 .012.061-.028.136s-.066.198-.057.274c.012.099 0 .132-.044.119-.054-.016-.086.059-.065.151.004.017-.028.134-.072.26s-.085.312-.092.414a1.129 1.129 0 0 1-.044.26c-.025.059.004.089.14.146.139.058.158.078.098.104-.041.018-.096.022-.122.01s-.047-.003-.047.021c0 .033-.016.033-.066.001-.052-.034-.072-.025-.095.042-.045.131-.037.147.062.122.078-.019.092-.005.088.09-.003.093-.024.113-.116.113-.166 0-.312.128-.275.242.017.051-.003.155-.044.235-.055.107-.06.154-.02.185s.027.061-.051.118c-.08.058-.1.107-.085.204.012.074-.003.14-.036.156-.031.015-.083.086-.116.158-.051.109-.049.136.01.17.054.031.057.051.015.083a.218.218 0 0 1-.113.043c-.082 0-.256.306-.291.511-.016.096-.059.208-.094.248s-.065.098-.065.127c0 .03-.048.13-.107.223a.702.702 0 0 0-.108.358c0 .145-.017.188-.072.185-.044-.002-.078.036-.087.099-.008.056-.033.102-.055.102-.054 0-.193.278-.193.386a.178.178 0 0 1-.072.134c-.078.05-.099.185-.028.185.024 0 .055-.021.068-.046.015-.029.026-.022.028.016.002.035-.061.093-.141.129s-.134.087-.121.113c.013.026.005.047-.018.047s-.039.061-.037.137c.003.077-.02.143-.053.151s-.058.036-.058.063c0 .026-.032.069-.072.094s-.072.077-.072.116-.045.105-.1.147c-.065.05-.093.109-.079.166.012.048-.002.095-.031.105-.035.011-.031.029.012.052.055.03.055.039 0 .058-.05.018-.051.028-.006.044s.043.034-.01.075c-.038.03-.057.082-.043.118.02.049.016.052-.02.014-.039-.042-.053-.042-.088 0-.023.028-.044.075-.047.106l-.012.12c-.004.035-.039.065-.079.065-.05 0-.072.039-.072.128 0 .077-.029.141-.075.16-.041.018-.08.059-.086.091s-.039.084-.073.116c-.034.032-.049.089-.033.128.017.042-.001.09-.044.118-.04.026-.073.074-.073.107s-.043.11-.095.172c-.052.061-.095.14-.095.176s-.017.065-.038.065c-.037 0-.057.087-.057.257 0 .049-.035.119-.077.155s-.065.08-.051.098c.014.018-.016.056-.067.085s-.093.071-.093.095c0 .024-.032.064-.072.089-.092.06-.092.148 0 .148.039 0 .072-.017.072-.037s.02-.037.043-.037c.024 0 .019.04-.011.09-.041.067-.07.08-.115.051-.033-.021-.063-.024-.065-.006l-.02.173c-.016.153-.092.248-.196.248-.036 0-.066.017-.066.038s-.037.082-.082.135c-.045.053-.087.122-.092.153s-.037.068-.068.083a.063.063 0 0 0-.028.087c.018.037-.006.077-.065.105-.052.025-.094.073-.094.107s-.052.071-.12.084c-.066.013-.12.049-.12.081 0 .051-.008.051-.072.002-.039-.031-.072-.074-.072-.095s-.022-.04-.049-.04c-.028 0-.017-.048.025-.112.053-.08.061-.131.027-.181-.026-.038-.033-.08-.015-.094s.002-.04-.036-.059c-.06-.029-.06-.036.001-.054.059-.017.067-.106.046-.549-.013-.29-.043-.551-.066-.579-.027-.032-.018-.062.024-.083.053-.026.053-.032.003-.033a.24.24 0 0 1-.125-.049c-.051-.04-.047-.063.021-.128.067-.064.076-.111.044-.239-.022-.088-.041-.172-.042-.187s-.034-.028-.074-.028-.072-.017-.072-.038c0-.021.032-.048.072-.06.085-.025.093-.093.017-.152-.063-.049-.195.031-.181.11.019.11-.009.145-.111.138-.25-.016-.321 0-.289.064.023.047.011.056-.049.038-.048-.014-.08-.006-.081.021a.572.572 0 0 1-.029.129c-.021.061-.008.083.048.083.088 0 .098.049.031.147-.037.054-.027.072.048.087.052.011.094.038.094.062 0 .026-.038.034-.095.02-.075-.018-.089-.01-.065.038.017.034.004.075-.029.09s-.063.089-.068.163c-.006.106.01.135.076.135.115 0 .107.098-.01.122-.086.017-.093.044-.075.289.013.183-.001.301-.046.368-.056.084-.056.114 0 .198.036.054.05.099.029.099s-.027.05-.016.111c.012.061.049.111.082.111.092 0 .124.102.041.127-.102.03-.123.027-.089-.015.017-.021-.003-.027-.049-.013-.063.019-.066.03-.014.055.052.026.051.039-.008.069s-.061.043-.007.07c.044.022.048.04.013.057-.028.014-.05.078-.047.144s-.001.136-.007.156c-.024.077.002.1.066.059.053-.034.066-.024.066.048 0 .057-.033.097-.09.108-.123.025-.113.091.018.11l.108.016-.108.005c-.146.007-.158.19-.012.19.053 0 .096.015.096.034s-.039.026-.087.016c-.105-.021-.214.07-.192.162.009.037.064.083.123.103s.105.053.102.074c-.013.095.016.123.154.144.117.018.166.006.235-.06.078-.075.102-.079.238-.039.134.039.162.035.255-.037a.333.333 0 0 1 .2-.07c.072.008.08.002.031-.024-.045-.024-.049-.042-.012-.059.029-.014.053-.056.053-.093 0-.078.091-.113.294-.113.078 0 .131-.014.118-.03-.027-.034.137-.155.21-.155.026 0 .047-.023.047-.05 0-.034.039-.045.118-.033.091.013.149-.011.251-.106.25-.231.397-.334.447-.31.067.032.284-.082.284-.149 0-.032.028-.045.072-.032.048.014.072-.002.073-.047.002-.109.117-.199.255-.199.115 0 .121-.007.066-.075-.053-.066-.043-.086.083-.169a1.63 1.63 0 0 1 .299-.148c.174-.061.195-.107.072-.16-.12-.052-.035-.097.178-.092.141.003.178-.009.158-.049-.016-.033.012-.061.076-.074.056-.011.102-.042.102-.068 0-.031-.038-.041-.108-.027l-.108.02.113-.078c.154-.107.295-.137.351-.075.034.037.04.029.023-.03-.016-.058-.004-.075.044-.061.036.011.066 0 .066-.024s.087-.109.194-.188c.107-.079.19-.166.186-.192-.029-.173.003-.214.166-.214.137 0 .159-.011.139-.071-.016-.048.016-.091.102-.135.069-.035.137-.055.152-.043.033.026.183-.089.264-.202.061-.086.072-.108.083-.179.003-.02.049-.037.102-.037.054 0 .096-.025.096-.057s.064-.086.143-.12c.175-.077.184-.14.024-.171-.066-.013-.12-.049-.12-.081 0-.04.028-.05.095-.034.071.017.088.01.068-.031-.044-.089-.208-.102-.273-.022-.031.039-.088.071-.125.071s-.054.011-.037.024c.034.027-.297.233-.376.235-.051.001-.212.25-.212.329 0 .024.035.043.078.043.064 0 .067.01.018.056a.233.233 0 0 1-.137.056c-.067 0-.068.006-.008.035.039.019.054.047.033.063-.046.036-.131-.064-.094-.111.025-.031-.066-.098-.135-.099-.017 0-.042.033-.055.073s-.065.086-.113.1c-.137.041-.258.17-.24.256.013.061-.004.074-.071.061-.048-.01-.088-.033-.088-.051s-.055-.006-.122.029c-.076.038-.102.072-.07.087.096.046-.004.144-.158.156-.137.01-.153.024-.166.151-.014.128-.022.136-.115.098-.086-.036-.096-.033-.068.023.024.049.012.06-.054.047-.106-.021-.221.067-.184.141.018.036-.016.068-.096.091-.154.045-.236.012-.155-.064a.297.297 0 0 0 .067-.173c.011-.19.019-.21.082-.21.058 0 .179-.237.179-.35 0-.03.031-.068.069-.084.04-.017.078-.104.089-.207.011-.097.033-.187.049-.199s.009-.051-.015-.086c-.037-.054-.026-.061.073-.046.071.011.117 0 .117-.026 0-.024-.021-.033-.048-.021-.127.061-.03-.085.169-.254.058-.05.163-.315.156-.395-.016-.183.015-.297.083-.297.04 0 .087-.029.103-.065s.057-.09.09-.121c.033-.031.067-.106.075-.167s.054-.167.102-.235c.048-.068.073-.156.058-.195s-.006-.071.022-.071c.028 0 .051-.042.051-.093s.023-.093.051-.093c.028 0 .037-.017.021-.037s.015-.086.069-.145c.054-.059.099-.126.099-.148s.021-.041.048-.041c.026 0 .048-.038.048-.085s.019-.101.043-.12c.023-.019.098-.176.165-.349.097-.249.11-.325.065-.369s-.044-.049.006-.025c.075.035.241-.087.211-.155-.011-.025.025-.102.08-.17s.1-.171.1-.228c0-.056.032-.121.071-.144s.079-.075.088-.115.03-.099.044-.13c.091-.188.12-.301.097-.37-.017-.049.003-.095.054-.124.045-.025.083-.099.085-.165s.025-.119.05-.119.034-.023.02-.052c-.014-.028.018-.088.072-.133.07-.058.09-.111.07-.186-.018-.07-.005-.111.038-.124.036-.011.101-.142.144-.291s.111-.309.15-.356.06-.099.046-.116c-.014-.017.008-.083.048-.146.072-.112.071-.324-.003-.46-.028-.052-.01-.065.09-.065.079 0 .125-.02.125-.056 0-.031.018-.056.04-.056s.043-.06.047-.134c.004-.074.03-.156.059-.183.06-.056.105-.245.097-.403-.003-.06.019-.12.05-.135s.065-.116.076-.225c.031-.29.03-.338-.01-.433-.028-.067-.016-.09.059-.105.097-.02.097-.022.133-.496.014-.192.039-.284.087-.32.018-.014.033-.103.033-.198s.02-.188.045-.207c.037-.029.057-.264.048-.573a1.093 1.093 0 0 1 .05-.222c.076-.248.092-.458.038-.509-.027-.026-.031-.075-.01-.111.051-.087.068-.788.018-.788-.021 0-.009-.046.028-.103.041-.064.062-.195.054-.343-.013-.248-.055-.349-.131-.313-.024.012-.031-.005-.015-.036s.05-.058.077-.058c.028 0 .023-.024-.011-.056-.048-.045-.046-.056.011-.056s.068-.054.054-.302c-.009-.166-.027-.31-.04-.32s-.006-.045.015-.078.024-.119.008-.191zM9.451 27.204c-.012-.025-.09-.044-.173-.042-.102.003-.12.01-.056.023.053.01.123.035.157.057.071.045.102.029.072-.037zm-.109-10.243c-.026 0-.048-.018-.048-.039s.021-.029.048-.016c.026.013.048.03.048.039s-.021.016-.048.016zm-.13 10.42c-.094 0-.205.066-.205.121 0 .017.027.019.06.003s.09-.029.127-.03c.104-.002.121-.094.018-.094zm-.09-16.957c-.016-.012-.018-.044-.004-.071.015-.03.027-.021.029.022.002.039-.009.061-.025.049zm-.067 16.864c-.026-.013-.048.003-.048.035s.021.058.048.058c.026 0 .048-.016.048-.035s-.021-.045-.048-.058zM8.909 9.804c-.025 0-.045-.017-.045-.037s.034-.037.075-.037c.041 0 .061.017.045.037s-.05.037-.075.037zM8.89 7.913c-.012 0-.034-.017-.051-.037s-.007-.037.021-.037.051.017.051.037-.009.037-.021.037zm-.469-.087c-.033-.01-.006-.019.06-.019s.093.008.06.019a.244.244 0 0 1-.12 0zm-.37-.432c-.026 0-.047-.029-.047-.065.001-.055.008-.057.047-.009.058.07.058.074 0 .074zm-.348 16.839c-.078-.06-.005-.095.077-.036.039.028.049.056.023.064s-.071-.005-.1-.027zm.061-17.525c-.026.013-.048.005-.048-.016s.021-.039.048-.039c.026 0 .048.007.048.016s-.021.027-.048.039zM7.405 28.53c-.039 0-.072-.017-.072-.037s.032-.037.072-.037c.039 0 .072.017.072.037s-.032.037-.072.037zM5.66 29.791c-.026 0-.048-.007-.048-.016s.021-.027.048-.039c.026-.013.048-.005.048.016s-.021.039-.048.039zm-2.415-.186c-.039 0-.072-.017-.072-.037s.032-.037.072-.037.072.017.072.037c0 .02-.032.037-.072.037zM3.153 1.349c-.012 0-.034-.017-.051-.037s-.007-.037.021-.037.051.017.051.037-.009.037-.021.037zm-.051 28.479c-.039 0-.072-.017-.072-.037s-.036-.037-.08-.037c-.044 0-.066-.01-.05-.023.043-.033.273.018.273.061 0 .02-.032.036-.072.036zm-.214-1.334c-.059-.075-.01-.122.069-.066.042.029.049.059.019.083s-.06.018-.088-.017zm.077.329c-.069.045-.221.019-.221-.037 0-.018.032-.033.072-.033s.072-.027.072-.06c0-.049.013-.052.072-.014.089.057.09.09.006.144zm-.043 2.419c-.047-.037-.041-.041.027-.021.047.014.074.035.059.046s-.053 0-.086-.025zm-.071-3.121c-.113-.001-.12-.006-.047-.039.046-.021.105-.028.131-.015.08.038.053.055-.084.054zm-.111 1.188c-.054 0-.085-.017-.069-.037s.061-.037.098-.037.069.017.069.037c0 .02-.044.037-.098.037zm-.068.853c-.039 0-.072-.024-.072-.054 0-.033.028-.046.072-.033.039.012.072.036.072.054s-.032.033-.072.033zM2.431.681C2.391.655 2.368.626 2.38.617c.033-.026.124.027.124.071 0 .025-.027.022-.073-.007zm-.378.335c-.012 0-.034-.017-.051-.037s-.007-.037.021-.037.051.017.051.037-.009.037-.021.037z"/></symbol><symbol id="icon-Right-arrow-curved-deg" viewBox="0 0 11 32"><path fill="#6966ff" style="fill:var(--color1,#6966ff)" d="M.033 14.03c.017-.072.046-.15.064-.174s.012-.053-.015-.066c-.062-.03-.064-.167-.002-.167.028 0 .025-.037-.008-.093-.043-.073-.04-.114.013-.191.051-.074.053-.102.01-.113s-.044-.037-.003-.108c.037-.063.039-.101.005-.118-.027-.014-.053-.095-.057-.181-.006-.122.016-.168.099-.213.058-.032.083-.057.056-.057-.055 0-.085-.429-.035-.492.017-.021.026-.147.02-.278-.009-.203.005-.252.095-.327.082-.068.094-.099.051-.139-.079-.074-.054-.369.035-.42.06-.034.063-.053.014-.098-.043-.04-.045-.06-.006-.07.034-.009.054-.129.055-.328.001-.173.035-.406.076-.518s.07-.259.063-.326c-.007-.067.01-.143.037-.169s.05-.079.051-.119c.003-.152.066-.372.126-.443.034-.041.061-.143.06-.226s.019-.184.046-.222c.027-.039.064-.15.083-.247s.053-.176.076-.176.042-.03.042-.066.032-.102.072-.145c.039-.044.059-.106.043-.138s.016-.125.07-.206c.062-.092.081-.156.05-.17s-.032-.04-.005-.066c.024-.024.111-.182.194-.353s.192-.351.243-.401c.051-.05.081-.115.066-.145-.018-.036.007-.053.08-.053.08 0 .094-.012.057-.046-.034-.032-.029-.091.017-.195.037-.082.067-.153.067-.158s.049-.01.108-.01c.078 0 .09-.009.043-.032-.054-.026-.054-.045 0-.111.035-.044.077-.079.094-.079s.044-.071.062-.158c.046-.229.175-.473.25-.473.036 0 .065-.024.065-.054s.053-.098.119-.153c.065-.055.107-.113.094-.131s.019-.061.073-.096c.054-.036.098-.103.098-.149 0-.051.029-.084.073-.084.04 0 .093-.042.118-.093s.084-.093.13-.093c.063 0 .069-.008.023-.031-.049-.024-.045-.054.024-.148.047-.064.113-.117.146-.117s.06-.034.06-.074.017-.074.038-.074c.021 0 .085-.075.143-.167s.126-.167.153-.167S4 3.29 4 3.259s.043-.056.096-.056.096-.025.096-.056.021-.056.048-.056.048-.021.048-.046c0-.069.286-.317.289-.25.001.031.029-.003.062-.074s.118-.178.189-.237c.071-.059.129-.122.129-.139s.032-.032.071-.032c.039 0 .101-.046.139-.103s.168-.169.288-.248c.121-.08.219-.163.219-.185 0-.05.278-.242.352-.242.03 0 .091-.05.135-.11s.136-.12.203-.134c.067-.013.123-.042.123-.064 0-.065.25-.248.339-.248.045 0 .094-.025.109-.056s.063-.056.107-.056.115-.029.157-.065a.694.694 0 0 1 .38-.158c.049 0 .137-.032.196-.072s.135-.063.17-.053c.038.011.06-.006.056-.045-.011-.097.09-.102.154-.008.031.046.048.058.036.025-.018-.051.116-.182.187-.182.013 0 .114-.044.223-.097.165-.081.215-.09.29-.053.065.032.108.033.153.004.066-.043.217-.015.217.04 0 .018.02.033.043.033s.032-.033.018-.074c-.017-.05-.002-.074.046-.074a.224.224 0 0 0 .13-.055c.052-.048.074-.046.18.019.132.08.299.098.299.032 0-.03.017-.03.062-.002a.26.26 0 0 0 .166.019c.137-.028.267.073.225.175-.019.046-.058.069-.099.057-.037-.011-.067.002-.067.03 0 .054.13.093.227.068.033-.009.06-.039.06-.068 0-.067.078-.069.11-.002.014.028-.017.078-.067.111-.1.067-.234.082-.234.026 0-.042-.204-.037-.243.006-.015.017-.079.038-.141.047s-.132.042-.154.073c-.022.031-.1.056-.173.056a.508.508 0 0 0-.287.118.509.509 0 0 1-.32.121c-.123.002-.164.019-.164.068 0 .059-.047.08-.126.056-.017-.005-.047.026-.068.07-.029.06-.066.075-.161.061-.091-.014-.123-.003-.123.042 0 .033-.021.06-.048.06s-.048.025-.048.056-.023.056-.051.056a.27.27 0 0 0-.126.058c-.053.041-.09.046-.126.019-.077-.06-.133-.047-.117.025.008.038-.016.065-.058.065-.039 0-.084.033-.1.074s-.053.07-.084.065c-.03-.005-.056.013-.056.04s-.052.087-.115.133c-.107.078-.117.079-.138.016-.016-.047-.024-.038-.028.031s-.066.136-.208.222c-.304.186-.376.25-.361.32.009.042-.023.068-.094.075-.065.007-.108.038-.108.077 0 .037-.076.096-.179.138-.099.04-.182.089-.186.108-.023.125-.095.213-.203.248-.069.022-.141.038-.161.034s-.039.015-.043.04c-.004.025-.012.063-.018.083s-.014.068-.017.106c-.004.05-.032.064-.101.05-.076-.015-.096-.001-.096.07 0 .049-.024.089-.054.089-.07 0-.261.16-.35.294-.038.058-.103.115-.143.127s-.073.055-.073.095-.017.081-.037.091c-.02.01-.031-.052-.024-.137.012-.138.007-.146-.043-.07-.038.058-.083.077-.144.062-.108-.027-.113.012-.013.097.068.058.064.072-.05.161-.069.053-.102.097-.075.097.065 0 .065.101 0 .118-.028.007-.057.046-.065.087-.009.046-.051.074-.113.074-.137 0-.18.044-.108.11.04.038.043.057.008.057-.029 0-.066.042-.083.093s-.06.093-.097.093c-.042 0-.067.041-.067.114 0 .11-.197.375-.354.477-.041.027-.064.062-.051.079s-.019.09-.071.163c-.053.073-.085.132-.071.132.05 0-.139.243-.225.29-.049.027-.076.065-.061.085s.008.056-.018.081-.062.12-.08.212-.086.229-.149.305c-.063.076-.115.173-.115.214s-.036.138-.079.214c-.043.076-.075.153-.07.171s-.036.07-.091.116c-.073.06-.092.109-.069.178.02.061.003.126-.045.18a.421.421 0 0 0-.076.244c0 .104-.024.167-.068.18-.037.011-.08.045-.095.075s-.006.045.02.032c.026-.013.034.003.018.035s-.064.059-.107.06-.056.01-.03.019c.058.019.031.312-.029.312-.023 0-.028.026-.012.059.024.049-.018.185-.165.535-.032.076-.052.2-.077.478-.012.13-.042.247-.067.26-.044.022-.057.115-.074.542-.004.102-.028.197-.052.21s-.05.097-.057.185l-.015.183a.59.59 0 0 1-.118.126c-.097.087-.105.112-.051.154.035.027.086.05.113.05.068 0 .008.519-.07.608-.045.051-.049.09-.013.143.029.042.035.13.016.207-.019.074-.041.544-.049 1.044s-.017.946-.018.992c-.002.046-.052.121-.111.167l-.107.083.113.012c.101.011.11.027.086.144a.416.416 0 0 1-.109.201c-.077.066-.076.07.016.07.079 0 .098.026.104.139.017.326.002.506-.047.551-.039.036-.034.064.021.106.091.071.104.762.015.807-.035.017-.025.027.029.028.09.001.107.107.04.242-.024.048-.015.087.027.111.035.02.076.137.091.26s.035.272.044.333c.009.061-.004.121-.03.134-.029.014-.023.042.016.075.074.061.108.33.042.33-.025 0-.012.061.028.136s.066.198.057.274c-.012.099 0 .132.044.119.054-.016.086.059.065.151-.004.017.028.134.072.26s.085.312.092.414.027.219.044.26c.025.059-.004.089-.14.146-.139.058-.158.078-.098.104.041.018.096.022.122.01s.047-.003.047.021c0 .033.016.033.066.001.052-.034.072-.025.095.042.045.131.037.147-.062.122-.078-.019-.092-.005-.088.09.003.093.024.113.116.113.166 0 .312.128.275.242-.017.051.003.155.044.235.055.107.06.154.02.185s-.027.061.051.118c.08.058.1.107.085.204-.012.074.003.14.036.156.031.015.083.086.116.158.051.109.049.136-.01.17-.054.031-.057.051-.015.083a.218.218 0 0 0 .113.043c.082 0 .256.306.291.511.016.096.059.208.094.248s.065.098.065.127c0 .03.048.13.107.223a.702.702 0 0 1 .108.358c0 .145.017.188.072.185.044-.002.078.036.087.099.008.056.033.102.055.102.054 0 .193.278.193.386 0 .048.032.108.072.134.078.05.099.185.028.185-.024 0-.055-.021-.068-.046-.015-.029-.026-.022-.028.016-.002.035.061.093.141.129s.134.087.121.113c-.013.026-.005.047.018.047s.039.061.037.137c-.003.077.02.143.053.151s.058.036.058.063c0 .026.032.069.072.094s.072.077.072.116.045.105.1.147c.065.05.093.109.079.166-.012.048.002.095.031.105.035.011.031.029-.012.052-.055.03-.055.039 0 .058.05.018.051.028.006.044s-.043.034.01.075c.038.03.057.082.043.118-.02.049-.016.052.02.014.039-.042.053-.042.088 0 .023.028.044.075.047.106l.012.12c.004.035.039.065.079.065.05 0 .072.039.072.128 0 .077.029.141.075.16.041.018.08.059.086.091s.039.084.073.116c.034.032.049.089.033.128-.017.042.001.09.044.118.04.026.073.074.073.107s.043.11.095.172c.052.061.095.14.095.176s.017.065.038.065c.037 0 .057.087.057.257 0 .049.035.119.077.155s.065.08.051.098c-.014.018.016.056.067.085s.093.071.093.095c0 .024.032.064.072.089.092.06.092.148 0 .148-.039 0-.072-.017-.072-.037s-.02-.037-.043-.037c-.024 0-.019.04.011.09.041.067.07.08.115.051.033-.021.063-.024.065-.006l.02.173c.016.153.092.248.196.248.036 0 .066.017.066.038s.037.082.082.135c.045.053.087.122.092.153s.037.068.068.083a.063.063 0 0 1 .028.087c-.018.037.006.077.065.105.052.025.094.073.094.107s.052.071.12.084c.066.013.12.049.12.081 0 .051.008.051.072.002.039-.031.072-.074.072-.095s.022-.04.049-.04c.028 0 .017-.048-.025-.112-.053-.08-.061-.131-.027-.181.026-.038.033-.08.015-.094s-.002-.04.036-.059c.06-.029.06-.036-.001-.054-.059-.017-.067-.106-.046-.549.013-.29.043-.551.066-.579.027-.032.019-.062-.024-.083-.052-.026-.053-.032-.003-.033a.24.24 0 0 0 .125-.049c.051-.04.047-.063-.021-.128-.067-.064-.076-.111-.044-.239.022-.088.041-.172.042-.187s.034-.028.074-.028.072-.017.072-.038c0-.021-.032-.048-.072-.06-.085-.025-.093-.093-.017-.152.063-.049.195.031.181.11-.019.11.009.145.111.138.25-.016.321 0 .289.064-.023.047-.011.056.049.038.048-.014.08-.006.081.021 0 .025.014.083.029.129.021.061.008.083-.048.083-.088 0-.098.049-.031.147.037.054.027.072-.048.087-.052.011-.095.038-.095.062 0 .026.037.034.095.02.075-.018.089-.01.065.038-.017.034-.004.075.029.09s.063.089.068.163c.006.106-.01.135-.076.135-.115 0-.107.098.01.122.086.017.093.044.075.289-.013.183.001.301.046.368.056.084.056.114 0 .198-.036.054-.05.099-.029.099s.027.05.016.111c-.012.061-.049.111-.082.111-.091 0-.124.102-.041.127.102.03.123.027.089-.015-.017-.021.003-.027.049-.013.063.019.066.03.014.055-.052.026-.051.039.008.069s.061.043.007.07c-.044.022-.048.04-.013.057.028.014.05.078.047.144s.001.136.007.156c.024.077-.002.1-.066.059-.053-.034-.066-.024-.066.048 0 .057.033.097.09.108.123.025.113.091-.018.11l-.108.016.108.005c.146.007.158.19.012.19-.053 0-.096.015-.096.034s.039.026.087.016c.105-.021.214.07.192.162-.009.037-.064.083-.123.103s-.105.053-.102.074c.013.095-.016.123-.154.144-.117.018-.166.006-.235-.06-.078-.075-.102-.079-.238-.039-.134.039-.162.035-.255-.037a.333.333 0 0 0-.2-.07c-.072.008-.08.002-.031-.024.045-.024.049-.042.012-.059-.029-.014-.053-.056-.053-.093 0-.078-.091-.113-.294-.113-.078 0-.131-.014-.118-.03.027-.034-.137-.155-.21-.155-.026 0-.047-.023-.047-.05 0-.034-.039-.045-.118-.033-.091.013-.149-.011-.251-.106-.25-.231-.397-.334-.447-.31-.067.032-.284-.082-.284-.149 0-.032-.028-.045-.072-.032-.048.014-.072-.002-.073-.047-.002-.109-.117-.199-.255-.199-.115 0-.121-.007-.066-.075.053-.066.043-.086-.083-.169a1.63 1.63 0 0 0-.299-.148c-.174-.061-.195-.107-.072-.16.12-.052.035-.097-.178-.092-.141.003-.178-.009-.158-.049.016-.033-.012-.061-.076-.074-.056-.011-.102-.042-.102-.068 0-.031.038-.041.108-.027l.108.02-.113-.078c-.154-.107-.295-.137-.351-.075-.034.037-.04.029-.023-.03.016-.058.004-.075-.044-.061-.036.011-.066 0-.066-.024s-.087-.109-.194-.188c-.107-.079-.19-.166-.186-.192.029-.173-.003-.214-.166-.214-.137 0-.159-.011-.139-.071.016-.048-.016-.091-.102-.135-.069-.035-.137-.055-.152-.043-.033.026-.183-.089-.264-.202-.061-.086-.072-.108-.083-.179-.003-.02-.049-.037-.102-.037-.054 0-.096-.025-.096-.057s-.064-.086-.143-.12c-.175-.077-.184-.14-.024-.171.066-.013.12-.049.12-.081 0-.04-.028-.05-.095-.034-.071.017-.088.01-.068-.031.044-.089.208-.102.273-.022.031.039.088.071.125.071s.054.011.037.024c-.034.027.297.233.376.235.051.001.212.25.212.329 0 .024-.035.043-.078.043-.064 0-.067.01-.018.056a.233.233 0 0 0 .137.056c.067 0 .068.006.007.035-.039.019-.054.047-.033.063.046.036.131-.064.094-.111-.025-.031.066-.098.135-.099.017 0 .042.033.055.073s.065.086.113.1c.137.041.258.17.24.256-.013.061.004.074.071.061.048-.01.088-.033.088-.051s.055-.006.122.029c.076.038.102.072.07.087-.096.046.004.144.158.156.137.01.153.024.166.151.014.128.022.136.115.098.086-.036.096-.033.068.023-.024.049-.012.06.054.047.106-.021.221.067.184.141-.018.036.016.068.096.091.154.045.236.012.155-.064a.297.297 0 0 1-.067-.173c-.011-.19-.019-.21-.082-.21-.058 0-.179-.237-.179-.35 0-.03-.031-.068-.069-.084-.04-.017-.078-.104-.089-.207-.011-.097-.033-.187-.049-.199s-.009-.051.015-.086c.037-.054.026-.061-.073-.046-.071.011-.117 0-.117-.026 0-.024.021-.033.048-.021.127.061.03-.085-.169-.254-.058-.05-.163-.315-.156-.395.017-.183-.015-.297-.083-.297-.04 0-.087-.029-.103-.065s-.057-.09-.09-.121c-.033-.031-.067-.106-.075-.167s-.054-.167-.102-.235c-.047-.068-.073-.156-.057-.195s.006-.071-.022-.071c-.028 0-.051-.042-.051-.093s-.023-.093-.051-.093c-.028 0-.037-.017-.021-.037s-.015-.086-.069-.145-.099-.126-.099-.148c0-.022-.022-.041-.048-.041s-.048-.038-.048-.085c0-.047-.019-.101-.043-.12s-.098-.176-.165-.349c-.097-.249-.11-.325-.065-.369s.044-.049-.006-.025c-.075.035-.241-.087-.211-.155.011-.025-.025-.102-.08-.17s-.1-.171-.1-.228c0-.056-.032-.121-.071-.144s-.079-.075-.088-.115-.03-.099-.045-.13c-.091-.188-.121-.301-.097-.37.017-.049-.003-.095-.054-.124-.045-.025-.083-.099-.085-.165s-.025-.119-.05-.119-.034-.023-.02-.052c.014-.028-.018-.088-.072-.133-.07-.058-.09-.111-.07-.186.018-.07.005-.111-.038-.124-.036-.011-.101-.142-.144-.291s-.111-.309-.15-.356-.06-.099-.046-.116c.014-.017-.008-.083-.048-.146-.072-.112-.071-.324.003-.46.028-.052.01-.065-.09-.065-.079 0-.125-.02-.125-.056 0-.031-.018-.056-.04-.056s-.043-.06-.047-.134c-.004-.074-.03-.156-.059-.183-.06-.056-.105-.245-.097-.403.003-.06-.019-.12-.049-.135s-.065-.116-.076-.225c-.031-.29-.03-.338.01-.433.028-.067.016-.09-.059-.105-.097-.02-.097-.022-.133-.496-.014-.192-.039-.284-.087-.32-.018-.014-.033-.103-.033-.198s-.02-.188-.045-.207c-.037-.029-.057-.264-.048-.573a1.093 1.093 0 0 0-.05-.222c-.076-.248-.092-.458-.038-.509.027-.026.031-.075.01-.111-.051-.087-.068-.788-.018-.788.021 0 .009-.046-.028-.103-.041-.064-.062-.195-.054-.343.013-.248.055-.349.131-.313.024.012.031-.005.015-.036s-.05-.058-.077-.058c-.028 0-.023-.024.011-.056.048-.045.046-.056-.011-.056s-.068-.054-.054-.302c.009-.166.027-.31.04-.32s.006-.045-.015-.078-.024-.119-.007-.191zm1.183 13.174c.012-.025.089-.044.173-.042.102.003.12.01.056.023a.525.525 0 0 0-.157.057c-.071.045-.102.029-.072-.037zm.109-10.243c.026 0 .048-.018.048-.039s-.022-.029-.048-.016c-.026.013-.048.03-.048.039s.022.016.048.016zm.13 10.42c.094 0 .205.066.205.121 0 .017-.027.019-.06.003s-.09-.029-.127-.03c-.104-.002-.121-.094-.018-.094zm.09-16.957c.016-.012.018-.044.004-.071-.015-.03-.027-.021-.029.022-.002.039.009.061.025.049zm.067 16.864c.026-.013.048.003.048.035s-.022.058-.048.058c-.026 0-.048-.016-.048-.035s.022-.045.048-.058zm.146-17.484c.025 0 .045-.017.045-.037s-.034-.037-.075-.037-.061.017-.045.037a.11.11 0 0 0 .075.037zm.018-1.891c.012 0 .034-.017.051-.037s.007-.037-.021-.037-.051.017-.051.037c0 .02.009.037.021.037zm.469-.087c.033-.01.006-.019-.06-.019s-.093.008-.06.019c.033.01.087.01.12 0zm.371-.432c.026 0 .047-.029.047-.065-.001-.055-.007-.057-.047-.009-.058.07-.058.074 0 .074zm.348 16.839c.078-.06.005-.095-.077-.036-.039.028-.049.056-.023.064s.071-.005.1-.027zM2.903 6.708c.026.013.048.005.048-.016s-.022-.039-.048-.039c-.026 0-.048.007-.048.016s.022.027.048.039zm.358 21.822c.039 0 .072-.017.072-.037s-.032-.037-.072-.037-.072.017-.072.037c0 .02.032.037.072.037zm1.746 1.261c.026 0 .048-.007.048-.016s-.021-.027-.048-.039c-.026-.013-.048-.005-.048.016s.021.039.048.039zm2.414-.186c.039 0 .072-.017.072-.037s-.032-.037-.072-.037-.072.017-.072.037c0 .02.032.037.072.037zm.093-28.256c.012 0 .034-.017.051-.037s.007-.037-.021-.037-.051.017-.051.037.009.037.021.037zm.051 28.479c.039 0 .072-.017.072-.037s.036-.037.08-.037c.044 0 .066-.01.05-.023-.043-.033-.273.018-.273.061 0 .02.032.036.072.036zm.214-1.334c.059-.075.01-.122-.069-.066-.042.029-.049.059-.019.083s.061.018.089-.017zm-.077.329c.069.045.221.019.221-.037 0-.018-.032-.033-.072-.033s-.072-.027-.072-.06c0-.049-.013-.052-.072-.014-.089.057-.09.09-.006.144zm.043 2.419c.047-.037.041-.041-.027-.021-.047.014-.074.035-.059.046s.053 0 .086-.025zm.071-3.121c.113-.001.12-.006.047-.039-.046-.021-.105-.028-.132-.015-.08.038-.053.055.084.054zm.11 1.188c.054 0 .085-.017.069-.037s-.061-.037-.098-.037c-.038 0-.069.017-.069.037s.044.037.098.037zm.069.853c.039 0 .072-.024.072-.054 0-.033-.028-.046-.072-.033-.039.012-.072.036-.072.054s.032.033.072.033zM8.235.681c.04-.026.063-.055.051-.064-.033-.026-.124.027-.124.071 0 .025.027.022.073-.007zm.379.335c.012 0 .034-.017.051-.037s.007-.037-.021-.037-.051.017-.051.037.009.037.021.037z"/></symbol><symbol id="icon-application-line" viewBox="0 0 324 32"><path fill="#6966ff" style="fill:var(--color1,#6966ff)" d="M164.531.722c-2.05.42-4.306.951-5.012 1.18s-2.782.786-4.612 1.236c-3.162.778-8.685 2.368-10.37 2.985-.43.157-2.455.782-4.5 1.389s-3.988 1.23-4.318 1.385c-.33.156-1.186.399-1.902.539-1.946.383-5.52 1.873-5.52 2.302 0 .207-.188.272-.416.145-.362-.2-3.698.693-6.041 1.617-.43.17-1.267.466-1.859.658s-1.076.51-1.076.708c0 .198-.488.359-1.085.359-.971 0-5.959 1.537-7.791 2.402-1.234.582-6.56 2.581-7.059 2.65-.263.036-.6.175-.75.309s-.502.244-.783.244-1.44.385-2.576.854c-2.938 1.216-5.132 2.044-5.587 2.108-.215.03-.744.174-1.174.32s-1.751.584-2.935.974c-1.184.39-2.504.844-2.935 1.009-2.951 1.128-11.188 1.266-13.305.222-.646-.318-1.47-.579-1.83-.581-.725-.002-2.279-1.58-2.279-2.314 0-.256-.308-.615-.685-.799s-1.125-1.09-1.663-2.016c-.538-.926-1.454-2.43-2.036-3.344s-1.258-2.337-1.504-3.164-.668-1.739-.938-2.028c-.52-.556-1.045-1.592-1.233-2.432-.062-.278-1.048-1.281-2.191-2.229-2.064-1.712-2.098-1.725-5.013-1.828-1.614-.057-3.111.017-3.326.166s-1.036.358-1.824.467c-1.824.25-8.937 2.728-8.937 3.113 0 .16-.435.29-.967.29s-1.985.406-3.228.902a200.486 200.486 0 0 1-5.627 2.101c-2.809 1-7.515 3.06-16.396 7.177-.753.349-1.846 1.039-2.429 1.533s-1.219.897-1.415.897c-.196 0-.783.301-1.306.669-.812.571-1.229.622-2.869.348-1.843-.308-1.963-.278-3.016.754-.745.73-1.097 1.452-1.097 2.251 0 .647-.3 1.644-.667 2.216-.647 1.009-.638 1.079.293 2.303 1.455 1.912 1.841 1.799 6.211-1.817 1.882-1.557 3.163-1.996 3.163-1.082 0 .172.264.313.587.313.697 0 .758-.407.144-.957-.629-.563-.225-1.249 1.081-1.836.618-.277 1.388-.692 1.71-.921s1.82-.996 3.326-1.705c1.507-.709 3.179-1.51 3.718-1.781 2.058-1.037 8.632-3.66 9.171-3.66.311 0 .666-.145.789-.323s.75-.427 1.393-.553c.643-.126 1.17-.375 1.17-.552s.274-.323.609-.323c.335 0 1.614-.447 2.843-.992s2.754-1.109 3.389-1.252c.636-.143 2.042-.622 3.125-1.064 1.675-.685 4.727-1.592 8.322-2.476 2.882-.708 5.974.159 5.974 1.676 0 .429.44 1.238.978 1.798.548.57.978 1.457.978 2.014 0 .548.176.996.392.996s.391.289.391.641c0 .352.439 1.417.977 2.365s.977 1.854.978 2.015c.001.16.662 1.023 1.469 1.917s1.82 2.019 2.25 2.5c1.289 1.441 4.664 4.212 5.137 4.218.243.003.643.224.889.489.976 1.053 7.71 1.649 11.779 1.042 1.418-.211 6.172-1.473 6.832-1.814.206-.106.752-.229 1.215-.274s2.494-.706 4.516-1.47 4.117-1.506 4.655-1.647 1.242-.448 1.565-.682c.323-.233 1.468-.67 2.544-.971s4.51-1.484 7.631-2.629 7.171-2.6 9-3.234c1.829-.634 3.494-1.291 3.698-1.46s.645-.307.978-.305c.513.001 8.319-2.554 10.781-3.529.43-.171 2.176-.709 3.878-1.198s3.313-1.048 3.578-1.246c.266-.197.634-.328.818-.291s.599-.023.922-.133c.323-.111 3.404-1.018 6.848-2.016s6.84-2.036 7.546-2.307c.707-.271 1.708-.492 2.225-.492s1.396-.155 1.953-.345c1.676-.571 6.13-1.102 7.302-.872 1.918.377 3.2 3.39 3.175 7.462-.003.515.172 1.133.39 1.374s.276.438.13.438c-.146 0 .008.35.343.779s.609 1.142.609 1.586c0 1.184 2.088 4.679 3.4 5.692 2.36 1.821 3.822 2.238 7.771 2.218 2.303-.012 3.901-.18 4.262-.448.318-.236.72-.35.894-.254.32.177 6.746-1.135 8.914-1.819 1.147-.362 7.049-2.086 7.826-2.286.215-.055 1.096-.216 1.957-.357s1.917-.387 2.348-.546c.792-.293 5.052-1.24 6.848-1.522.538-.084 2.299-.407 3.913-.716 4.303-.824 5.486-.92 11.74-.949 5.334-.025 5.797.027 7.728.875 1.13.496 2.054 1.127 2.054 1.403s.352.601.783.723c.43.122.782.369.782.549s.254.327.565.327.796.296 1.079.658c.437.558 1.803 1.641 4.617 3.66 1.511 1.084 3.847 2.067 6.59 2.773 2.646.681 3.938.773 11.02.781 4.412.005 11.544-.128 15.848-.294s9.675-.324 11.935-.35c2.26-.026 4.32-.169 4.579-.319s.963-.189 1.565-.088 2.416.276 4.03.388c4.719.328 5.556.42 7.826.861 2.404.467 4.304.071 4.304-.895 0-.831-1.799-2.27-2.839-2.27-.505 0-1.088-.153-1.298-.34s-1.433-.425-2.72-.527c-1.286-.103-3.131-.33-4.099-.504-1.934-.348-20.642-.231-27.785.175-9.981.567-20.782.174-22.936-.834a33.224 33.224 0 0 0-1.717-.725c-1.812-.703-4.859-2.411-5.007-2.807-.08-.215-.384-.392-.674-.392s-.64-.315-.776-.701c-.137-.385-.477-.701-.756-.701s-.995-.631-1.592-1.401c-.733-.946-1.377-1.401-1.984-1.401-.542 0-.993-.267-1.136-.671-.374-1.054-6.995-2.678-10.381-2.547-.538.021-1.696.038-2.573.039-1.772 0-9.453.864-12.492 1.403-1.076.191-3.542.762-5.478 1.268s-4.226 1.046-5.087 1.199c-1.632.291-6.942 1.717-9.979 2.68-.968.307-2.113.603-2.544.658-1.017.129-5.366 1.252-5.861 1.514-.21.111-2.111.266-4.224.343-4.852.179-5.97-.188-6.974-2.284-.785-1.639-1.636-5.616-1.304-6.096.11-.159-.055-.648-.366-1.087s-.688-1.507-.836-2.374c-.148-.867-.606-2.098-1.016-2.735s-.746-1.453-.746-1.812c0-.938-1.871-2.817-2.567-2.578-.315.109-.86-.016-1.211-.277-.949-.705-4.314-.604-8.512.256zM4.835 25.383c-.389.385-.859.701-1.042.701s-.114-.315.155-.701c.269-.385.738-.701 1.042-.701.425 0 .389.162-.155.701z"/></symbol><symbol id="icon-asked-plus" viewBox="0 0 32 32"><path fill="none" stroke="#fff" style="stroke:var(--color1,#fff)" stroke-linejoin="round" stroke-linecap="round" stroke-width="4" d="M16 6.667v18.667M6.666 16h18.667"/></symbol><symbol id="icon-sparkle" viewBox="0 0 34 32"><path fill="#6966ff" style="fill:var(--color1,#6966ff)" d="M.555.82a9.343 9.343 0 0 0-.289 1.547c-.144 1.835-.311 7.991-.255 9.229 0 .376.067.796.222 1.139.277.608.988.652 1.376.088.144-.199.233-.464.277-.718a25.15 25.15 0 0 0 .277-2.222c.155-2.233.3-4.476.4-6.709.033-.741-.044-1.492-.133-2.233-.067-.553-.522-.973-.943-.94C.988.045.677.366.555.819zm15.182 14.722c.043-.169.079-.329.115-.481.075-.324.142-.615.241-.901 1.443-4.244 3.762-8.024 6.404-11.617.311-.42.699-.818 1.132-1.083.233-.144.699-.122.966.022.2.111.344.542.3.785-.078.464-.244.94-.477 1.36a770.287 770.287 0 0 1-4.639 8.29c-.46.804-.941 1.602-1.421 2.398l-.399.663c-.2.343-.422.674-.655.984-.255.354-.644.564-1.032.332l-.074-.044c-.232-.136-.459-.268-.459-.708zm15.157 16.373c-.386-.056-.795-.114-1.194-.203h-.002a735.594 735.594 0 0 1-7.08-1.613 6.228 6.228 0 0 1-1.465-.575c-.61-.32-.821-.774-.721-1.271s.499-.807 1.199-.818c.477-.011.988 0 1.443.11 2.986.752 5.971 1.525 8.945 2.31.333.088.677.243.932.464.644.542.444 1.393-.377 1.603-.203.049-.425.054-.669.059-.142.003-.293.006-.452.018-.178-.03-.366-.057-.56-.085z"/></symbol></defs></svg>