<svg aria-hidden="true" style="width:0;height:0;position:absolute;overflow:hidden" xmlns="http://www.w3.org/2000/svg"><defs><symbol id="icon-hero-arrow-right" viewBox="0 0 32 32"><path fill="none" stroke="#fff" style="stroke:var(--color1,#fff)" stroke-linejoin="round" stroke-linecap="round" stroke-width="4" d="M6.666 16h18.667M16 6.667 25.333 16 16 25.333"/></symbol><symbol id="icon-Discord" viewBox="0 0 32 32"><path fill="#c8c7d8" style="fill:var(--color1,#c8c7d8)" d="M27.089 5.543a26.392 26.392 0 0 0-6.514-2.02.098.098 0 0 0-.105.05 18.37 18.37 0 0 0-.811 1.666 24.378 24.378 0 0 0-7.316 0 16.725 16.725 0 0 0-.824-1.666.103.103 0 0 0-.105-.05 26.313 26.313 0 0 0-6.513 2.02.091.091 0 0 0-.043.037C.709 11.778-.427 17.823.131 23.794a.112.112 0 0 0 .042.075 26.531 26.531 0 0 0 7.991 4.039.103.103 0 0 0 .112-.037 19.005 19.005 0 0 0 1.635-2.659.102.102 0 0 0-.055-.141c-.87-.33-1.699-.733-2.496-1.19a.103.103 0 0 1-.01-.17c.168-.126.336-.257.496-.389a.099.099 0 0 1 .103-.014c5.237 2.391 10.907 2.391 16.082 0a.1.1 0 0 1 .105.013c.16.132.328.264.497.39a.102.102 0 0 1-.009.17c-.797.466-1.626.86-2.497 1.188a.102.102 0 0 0-.054.142 21.382 21.382 0 0 0 1.633 2.658.102.102 0 0 0 .112.038 26.448 26.448 0 0 0 8.003-4.039.104.104 0 0 0 .042-.074c.667-6.903-1.118-12.899-4.731-18.214a.082.082 0 0 0-.042-.038zM10.693 20.158c-1.577 0-2.876-1.447-2.876-3.225s1.274-3.225 2.876-3.225c1.614 0 2.901 1.46 2.876 3.225 0 1.778-1.274 3.225-2.876 3.225zm10.633 0c-1.577 0-2.876-1.447-2.876-3.225s1.274-3.225 2.876-3.225c1.614 0 2.901 1.46 2.876 3.225 0 1.778-1.261 3.225-2.876 3.225z"/></symbol><symbol id="icon-Twitter" viewBox="0 0 32 32"><path fill="#c8c7d8" style="fill:var(--color1,#c8c7d8)" d="M10.067 29.001c12.073 0 18.678-10.004 18.678-18.678 0-.281-.006-.569-.019-.85A13.31 13.31 0 0 0 32 6.074c-1.197.532-2.467.88-3.768 1.031a6.598 6.598 0 0 0 2.887-3.631 13.2 13.2 0 0 1-4.168 1.593 6.57 6.57 0 0 0-7.888-1.291 6.572 6.572 0 0 0-3.304 7.278A18.65 18.65 0 0 1 2.23 4.199c-.838 1.445-1.095 3.155-.717 4.782s1.36 3.05 2.748 3.979a6.57 6.57 0 0 1-2.974-.819v.081a6.56 6.56 0 0 0 5.268 6.438 6.532 6.532 0 0 1-2.962.113 6.577 6.577 0 0 0 6.13 4.563A13.168 13.168 0 0 1 0 26.052a18.625 18.625 0 0 0 10.067 2.949z"/></symbol><symbol id="icon-external-link" viewBox="0 0 32 32"><path fill="none" stroke="#c8c7d8" style="stroke:var(--color1,#c8c7d8)" stroke-linejoin="round" stroke-linecap="round" stroke-width="4" d="M24 17.333v8A2.668 2.668 0 0 1 21.333 28H6.666a2.668 2.668 0 0 1-2.667-2.667V10.666a2.668 2.668 0 0 1 2.667-2.667h8M20 4h8v8M13.333 18.667 28 4"/></symbol><symbol id="icon-cta_arrow-right" viewBox="0 0 32 32"><path fill="none" stroke="#6966ff" style="stroke:var(--color1,#6966ff)" stroke-linejoin="round" stroke-linecap="round" stroke-width="4" d="M6.666 16h18.667M16 6.667 25.333 16 16 25.333"/></symbol></defs></svg>