<svg width="30" height="28" viewBox="0 0 30 28" fill="none" xmlns="http://www.w3.org/2000/svg">
<path fill-rule="evenodd" clip-rule="evenodd" d="M0.485422 0.717277C0.368887 1.16215 0.271774 1.6167 0.232929 2.07125C0.106684 3.67667 -0.0389845 9.06355 0.00957168 10.1467C0.00957168 10.4756 0.0678389 10.8431 0.203796 11.1429C0.446577 11.6748 1.0681 11.7135 1.40799 11.2202C1.53423 11.0462 1.61192 10.814 1.65077 10.5916C1.75759 9.94364 1.84499 9.29566 1.89355 8.64769C2.02951 6.6941 2.15575 4.73084 2.24315 2.77725C2.27229 2.12928 2.20431 1.47163 2.12662 0.823662C2.06835 0.3401 1.67019 -0.0274075 1.30117 0.00160622C0.86416 0.0402912 0.592245 0.320757 0.485422 0.717277ZM13.7702 13.599C13.8075 13.4507 13.8397 13.3112 13.8705 13.1782L13.8705 13.1781C13.9361 12.8947 13.9951 12.6402 14.081 12.3901C15.3434 8.67632 17.3731 5.36875 19.6844 2.2256C19.9563 1.8581 20.2962 1.50993 20.6749 1.27782C20.8788 1.1521 21.2867 1.17144 21.5198 1.29717C21.6946 1.39388 21.8208 1.77105 21.782 1.98382C21.714 2.39001 21.5683 2.80588 21.3644 3.17339C20.0243 5.60086 18.6744 8.01867 17.3051 10.4268C16.9023 11.1307 16.4817 11.8286 16.0618 12.5253L16.0618 12.5254C15.9451 12.7189 15.8286 12.9123 15.7125 13.1057C15.5377 13.4056 15.3434 13.6957 15.1395 13.9665C14.9161 14.276 14.5763 14.4597 14.2364 14.2566C14.2149 14.2436 14.1933 14.231 14.1718 14.2184L14.1717 14.2183C13.9686 14.0996 13.7702 13.9836 13.7702 13.599ZM27.0319 27.926L27.0318 27.926C26.6941 27.8774 26.3364 27.8258 25.9872 27.7486L25.9867 27.7484L25.9861 27.7483C23.918 27.2842 21.8499 26.82 19.7915 26.3365C19.3447 26.2302 18.9077 26.0464 18.5096 25.8336C17.9755 25.5532 17.7909 25.1567 17.8783 24.7215C17.9657 24.2862 18.3153 24.0155 18.9272 24.0058C19.3447 23.9961 19.7915 24.0058 20.1896 24.1025C22.8019 24.7601 25.4143 25.4371 28.0169 26.1238C28.3082 26.2012 28.6093 26.3365 28.8326 26.53C29.3959 27.0039 29.2211 27.7485 28.5024 27.9323C28.3244 27.9751 28.1309 27.9792 27.9169 27.9838H27.9169C27.7923 27.9865 27.6609 27.9893 27.5216 28C27.3658 27.9741 27.2014 27.9504 27.0319 27.926Z" fill="#6966FF"/>
</svg>
