<svg aria-hidden="true" style="position: absolute; width: 0; height: 0; overflow: hidden;" version="1.1" xmlns="http://www.w3.org/2000/svg" xmlns:xlink="http://www.w3.org/1999/xlink">
<defs>
<symbol id="icon-hero-arrow-right" viewBox="0 0 32 32">
<path fill="none" stroke="#fff" style="stroke: var(--color1, #fff)" stroke-linejoin="round" stroke-linecap="round" stroke-miterlimit="4" stroke-width="4" d="M6.666 16h18.667"></path>
<path fill="none" stroke="#fff" style="stroke: var(--color1, #fff)" stroke-linejoin="round" stroke-linecap="round" stroke-miterlimit="4" stroke-width="4" d="M16 6.667l9.333 9.333-9.333 9.333"></path>
</symbol>
<symbol id="icon-Discord" viewBox="0 0 32 32">
<path fill="#c8c7d8" style="fill: var(--color1, #c8c7d8)" d="M27.089 5.543c-2.040-0.936-4.227-1.625-6.514-2.020-0.042-0.008-0.083 0.011-0.105 0.050-0.281 0.5-0.593 1.153-0.811 1.666-2.46-0.368-4.907-0.368-7.316 0-0.218-0.524-0.541-1.166-0.824-1.666-0.021-0.037-0.063-0.056-0.105-0.050-2.286 0.394-4.473 1.083-6.513 2.020-0.018 0.008-0.033 0.020-0.043 0.037-4.149 6.198-5.285 12.243-4.727 18.214 0.003 0.029 0.019 0.057 0.042 0.075 2.737 2.010 5.388 3.23 7.991 4.039 0.042 0.013 0.086-0.003 0.112-0.037 0.616-0.841 1.164-1.727 1.635-2.659 0.028-0.055 0.001-0.119-0.055-0.141-0.87-0.33-1.699-0.733-2.496-1.19-0.063-0.037-0.068-0.127-0.010-0.17 0.168-0.126 0.336-0.257 0.496-0.389 0.029-0.024 0.069-0.029 0.103-0.014 5.237 2.391 10.907 2.391 16.082 0 0.034-0.016 0.074-0.011 0.105 0.013 0.16 0.132 0.328 0.264 0.497 0.39 0.058 0.043 0.054 0.133-0.009 0.17-0.797 0.466-1.626 0.86-2.497 1.188-0.057 0.022-0.082 0.088-0.054 0.142 0.481 0.931 1.029 1.817 1.633 2.658 0.025 0.035 0.071 0.051 0.112 0.038 2.615-0.809 5.266-2.029 8.003-4.039 0.024-0.018 0.039-0.044 0.042-0.074 0.667-6.903-1.118-12.899-4.731-18.214-0.009-0.018-0.024-0.030-0.042-0.038zM10.693 20.158c-1.577 0-2.876-1.447-2.876-3.225s1.274-3.225 2.876-3.225c1.614 0 2.901 1.46 2.876 3.225 0 1.778-1.274 3.225-2.876 3.225zM21.326 20.158c-1.577 0-2.876-1.447-2.876-3.225s1.274-3.225 2.876-3.225c1.614 0 2.901 1.46 2.876 3.225 0 1.778-1.261 3.225-2.876 3.225z"></path>
</symbol>
<symbol id="icon-Twitter" viewBox="0 0 32 32">
<path fill="#c8c7d8" style="fill: var(--color1, #c8c7d8)" d="M10.067 29.001c12.073 0 18.678-10.004 18.678-18.678 0-0.281-0.006-0.569-0.019-0.85 1.285-0.929 2.394-2.080 3.274-3.399-1.197 0.532-2.467 0.88-3.768 1.031 1.37-0.821 2.396-2.111 2.887-3.631-1.289 0.764-2.698 1.302-4.168 1.593-0.99-1.052-2.299-1.749-3.725-1.982s-2.889 0.009-4.163 0.691-2.288 1.763-2.885 3.079c-0.597 1.315-0.745 2.791-0.419 4.199-2.609-0.131-5.162-0.809-7.493-1.99s-4.387-2.838-6.036-4.865c-0.838 1.445-1.095 3.155-0.717 4.782s1.36 3.050 2.748 3.979c-1.042-0.033-2.062-0.314-2.974-0.819v0.081c-0.001 1.516 0.523 2.986 1.484 4.16s2.297 1.978 3.784 2.278c-0.966 0.264-1.979 0.303-2.962 0.113 0.419 1.304 1.236 2.445 2.335 3.263s2.426 1.272 3.795 1.3c-2.325 1.826-5.198 2.817-8.154 2.812-0.524-0.001-1.048-0.033-1.569-0.096 3.004 1.927 6.498 2.951 10.067 2.949z"></path>
</symbol>
<symbol id="icon-external-link" viewBox="0 0 32 32">
<path fill="none" stroke="#c8c7d8" style="stroke: var(--color1, #c8c7d8)" stroke-linejoin="round" stroke-linecap="round" stroke-miterlimit="4" stroke-width="4" d="M24 17.333v8c0 0.707-0.281 1.386-0.781 1.886s-1.178 0.781-1.886 0.781h-14.667c-0.707 0-1.386-0.281-1.886-0.781s-0.781-1.178-0.781-1.886v-14.667c0-0.707 0.281-1.386 0.781-1.886s1.178-0.781 1.886-0.781h8"></path>
<path fill="none" stroke="#c8c7d8" style="stroke: var(--color1, #c8c7d8)" stroke-linejoin="round" stroke-linecap="round" stroke-miterlimit="4" stroke-width="4" d="M20 4h8v8"></path>
<path fill="none" stroke="#c8c7d8" style="stroke: var(--color1, #c8c7d8)" stroke-linejoin="round" stroke-linecap="round" stroke-miterlimit="4" stroke-width="4" d="M13.333 18.667l14.667-14.667"></path>
</symbol>
<symbol id="icon-cta_arrow-right" viewBox="0 0 32 32">
<path fill="none" stroke="#6966ff" style="stroke: var(--color1, #6966ff)" stroke-linejoin="round" stroke-linecap="round" stroke-miterlimit="4" stroke-width="4" d="M6.666 16h18.667"></path>
<path fill="none" stroke="#6966ff" style="stroke: var(--color1, #6966ff)" stroke-linejoin="round" stroke-linecap="round" stroke-miterlimit="4" stroke-width="4" d="M16 6.667l9.333 9.333-9.333 9.333"></path>
</symbol>
</defs>
</svg>
