<svg aria-hidden="true" style="position: absolute; width: 0; height: 0; overflow: hidden;" version="1.1" xmlns="http://www.w3.org/2000/svg" xmlns:xlink="http://www.w3.org/1999/xlink">
<defs>
<symbol id="icon-hero-arrow-right" viewBox="0 0 32 32">
<path fill="none" stroke="#fff" style="stroke: var(--color1, #fff)" stroke-linejoin="round" stroke-linecap="round" stroke-miterlimit="4" stroke-width="4" d="M6.666 16h18.667"></path>
<path fill="none" stroke="#fff" style="stroke: var(--color1, #fff)" stroke-linejoin="round" stroke-linecap="round" stroke-miterlimit="4" stroke-width="4" d="M16 6.667l9.333 9.333-9.333 9.333"></path>
</symbol>
<symbol id="icon-Discord" viewBox="0 0 32 32">
<path fill="#c8c7d8" style="fill: var(--color1, #c8c7d8)" d="M27.089 5.543c-2.040-0.936-4.227-1.625-6.514-2.020-0.042-0.008-0.083 0.011-0.105 0.050-0.281 0.5-0.593 1.153-0.811 1.666-2.46-0.368-4.907-0.368-7.316 0-0.218-0.524-0.541-1.166-0.824-1.666-0.021-0.037-0.063-0.056-0.105-0.050-2.286 0.394-4.473 1.083-6.513 2.020-0.018 0.008-0.033 0.020-0.043 0.037-4.149 6.198-5.285 12.243-4.727 18.214 0.003 0.029 0.019 0.057 0.042 0.075 2.737 2.010 5.388 3.23 7.991 4.039 0.042 0.013 0.086-0.003 0.112-0.037 0.616-0.841 1.164-1.727 1.635-2.659 0.028-0.055 0.001-0.119-0.055-0.141-0.87-0.33-1.699-0.733-2.496-1.19-0.063-0.037-0.068-0.127-0.010-0.17 0.168-0.126 0.336-0.257 0.496-0.389 0.029-0.024 0.069-0.029 0.103-0.014 5.237 2.391 10.907 2.391 16.082 0 0.034-0.016 0.074-0.011 0.105 0.013 0.16 0.132 0.328 0.264 0.497 0.39 0.058 0.043 0.054 0.133-0.009 0.17-0.797 0.466-1.626 0.86-2.497 1.188-0.057 0.022-0.082 0.088-0.054 0.142 0.481 0.931 1.029 1.817 1.633 2.658 0.025 0.035 0.071 0.051 0.112 0.038 2.615-0.809 5.266-2.029 8.003-4.039 0.024-0.018 0.039-0.044 0.042-0.074 0.667-6.903-1.118-12.899-4.731-18.214-0.009-0.018-0.024-0.030-0.042-0.038zM10.693 20.158c-1.577 0-2.876-1.447-2.876-3.225s1.274-3.225 2.876-3.225c1.614 0 2.901 1.46 2.876 3.225 0 1.778-1.274 3.225-2.876 3.225zM21.326 20.158c-1.577 0-2.876-1.447-2.876-3.225s1.274-3.225 2.876-3.225c1.614 0 2.901 1.46 2.876 3.225 0 1.778-1.261 3.225-2.876 3.225z"></path>
</symbol>
<symbol id="icon-Twitter" viewBox="0 0 32 32">
<path fill="#c8c7d8" style="fill: var(--color1, #c8c7d8)" d="M10.067 29.001c12.073 0 18.678-10.004 18.678-18.678 0-0.281-0.006-0.569-0.019-0.85 1.285-0.929 2.394-2.080 3.274-3.399-1.197 0.532-2.467 0.88-3.768 1.031 1.37-0.821 2.396-2.111 2.887-3.631-1.289 0.764-2.698 1.302-4.168 1.593-0.99-1.052-2.299-1.749-3.725-1.982s-2.889 0.009-4.163 0.691-2.288 1.763-2.885 3.079c-0.597 1.315-0.745 2.791-0.419 4.199-2.609-0.131-5.162-0.809-7.493-1.99s-4.387-2.838-6.036-4.865c-0.838 1.445-1.095 3.155-0.717 4.782s1.36 3.050 2.748 3.979c-1.042-0.033-2.062-0.314-2.974-0.819v0.081c-0.001 1.516 0.523 2.986 1.484 4.16s2.297 1.978 3.784 2.278c-0.966 0.264-1.979 0.303-2.962 0.113 0.419 1.304 1.236 2.445 2.335 3.263s2.426 1.272 3.795 1.3c-2.325 1.826-5.198 2.817-8.154 2.812-0.524-0.001-1.048-0.033-1.569-0.096 3.004 1.927 6.498 2.951 10.067 2.949z"></path>
</symbol>
<symbol id="icon-external-link" viewBox="0 0 32 32">
<path fill="none" stroke="#c8c7d8" style="stroke: var(--color1, #c8c7d8)" stroke-linejoin="round" stroke-linecap="round" stroke-miterlimit="4" stroke-width="4" d="M24 17.333v8c0 0.707-0.281 1.386-0.781 1.886s-1.178 0.781-1.886 0.781h-14.667c-0.707 0-1.386-0.281-1.886-0.781s-0.781-1.178-0.781-1.886v-14.667c0-0.707 0.281-1.386 0.781-1.886s1.178-0.781 1.886-0.781h8"></path>
<path fill="none" stroke="#c8c7d8" style="stroke: var(--color1, #c8c7d8)" stroke-linejoin="round" stroke-linecap="round" stroke-miterlimit="4" stroke-width="4" d="M20 4h8v8"></path>
<path fill="none" stroke="#c8c7d8" style="stroke: var(--color1, #c8c7d8)" stroke-linejoin="round" stroke-linecap="round" stroke-miterlimit="4" stroke-width="4" d="M13.333 18.667l14.667-14.667"></path>
</symbol>
<symbol id="icon-cta_arrow-right" viewBox="0 0 32 32">
<path fill="none" stroke="#6966ff" style="stroke: var(--color1, #6966ff)" stroke-linejoin="round" stroke-linecap="round" stroke-miterlimit="4" stroke-width="4" d="M6.666 16h18.667"></path>
<path fill="none" stroke="#6966ff" style="stroke: var(--color1, #6966ff)" stroke-linejoin="round" stroke-linecap="round" stroke-miterlimit="4" stroke-width="4" d="M16 6.667l9.333 9.333-9.333 9.333"></path>
</symbol>
<symbol id="icon-Right-arrow-curved" viewBox="0 0 11 32">
<path fill="#6966ff" style="fill: var(--color1, #6966ff)" d="M10.634 14.030c-0.017-0.072-0.046-0.15-0.064-0.174s-0.012-0.053 0.015-0.066c0.062-0.030 0.064-0.167 0.002-0.167-0.028 0-0.025-0.037 0.008-0.093 0.043-0.073 0.040-0.114-0.013-0.191-0.051-0.074-0.053-0.102-0.010-0.113s0.044-0.037 0.003-0.108c-0.037-0.063-0.039-0.101-0.005-0.118 0.027-0.014 0.053-0.095 0.057-0.181 0.006-0.122-0.016-0.168-0.099-0.213-0.058-0.032-0.083-0.057-0.056-0.057 0.055 0 0.085-0.429 0.035-0.492-0.017-0.021-0.026-0.147-0.020-0.278 0.009-0.203-0.005-0.252-0.095-0.327-0.082-0.068-0.094-0.099-0.051-0.139 0.079-0.074 0.054-0.369-0.035-0.42-0.060-0.034-0.063-0.053-0.014-0.098 0.043-0.040 0.045-0.060 0.006-0.070-0.034-0.009-0.054-0.129-0.055-0.328-0.001-0.173-0.035-0.406-0.076-0.518s-0.070-0.259-0.063-0.326c0.007-0.067-0.010-0.143-0.037-0.169s-0.050-0.079-0.051-0.119c-0.004-0.152-0.066-0.372-0.126-0.443-0.034-0.041-0.061-0.143-0.060-0.226s-0.019-0.184-0.046-0.222c-0.027-0.039-0.064-0.15-0.083-0.247s-0.053-0.176-0.076-0.176c-0.023 0-0.042-0.030-0.042-0.066s-0.032-0.102-0.072-0.145c-0.039-0.044-0.059-0.106-0.043-0.138s-0.016-0.125-0.070-0.206c-0.062-0.092-0.081-0.156-0.050-0.17s0.031-0.040 0.005-0.066c-0.024-0.024-0.111-0.182-0.194-0.353s-0.192-0.351-0.243-0.401c-0.051-0.050-0.081-0.115-0.066-0.145 0.018-0.036-0.007-0.053-0.080-0.053-0.080 0-0.094-0.012-0.057-0.046 0.034-0.032 0.029-0.091-0.017-0.195-0.037-0.082-0.067-0.153-0.067-0.158s-0.049-0.010-0.108-0.010c-0.078-0-0.090-0.009-0.043-0.032 0.054-0.026 0.054-0.045 0-0.111-0.035-0.044-0.077-0.079-0.094-0.079s-0.044-0.071-0.062-0.158c-0.046-0.229-0.175-0.473-0.25-0.473-0.036 0-0.065-0.024-0.065-0.054s-0.053-0.098-0.119-0.153c-0.065-0.055-0.107-0.113-0.094-0.131s-0.019-0.061-0.073-0.096c-0.054-0.036-0.098-0.103-0.098-0.149 0-0.051-0.029-0.084-0.073-0.084-0.040 0-0.093-0.042-0.118-0.093s-0.084-0.093-0.13-0.093c-0.063-0-0.069-0.008-0.023-0.031 0.049-0.024 0.045-0.054-0.024-0.148-0.047-0.064-0.113-0.117-0.146-0.117s-0.060-0.034-0.060-0.074-0.017-0.074-0.038-0.074c-0.021 0-0.085-0.075-0.143-0.167s-0.126-0.167-0.153-0.167-0.048-0.025-0.048-0.056c0-0.031-0.043-0.056-0.096-0.056s-0.096-0.025-0.096-0.056c0-0.031-0.021-0.056-0.048-0.056s-0.048-0.021-0.048-0.046c-0-0.069-0.286-0.317-0.289-0.25-0.001 0.031-0.029-0.003-0.062-0.074s-0.118-0.178-0.189-0.237c-0.071-0.059-0.129-0.122-0.129-0.139s-0.032-0.032-0.071-0.032c-0.039 0-0.101-0.046-0.139-0.103s-0.168-0.169-0.288-0.248c-0.121-0.080-0.219-0.163-0.219-0.185 0-0.050-0.278-0.242-0.352-0.242-0.030-0-0.091-0.050-0.135-0.11s-0.136-0.12-0.203-0.134c-0.067-0.013-0.123-0.042-0.123-0.064 0-0.065-0.25-0.248-0.339-0.248-0.045 0-0.094-0.025-0.109-0.056s-0.063-0.056-0.107-0.056-0.115-0.029-0.157-0.065c-0.106-0.089-0.272-0.158-0.38-0.158-0.049 0-0.137-0.032-0.196-0.072s-0.135-0.063-0.17-0.053c-0.038 0.011-0.060-0.006-0.056-0.045 0.011-0.097-0.090-0.102-0.154-0.008-0.031 0.046-0.048 0.058-0.036 0.025 0.018-0.051-0.116-0.182-0.187-0.182-0.013 0-0.114-0.044-0.223-0.097-0.165-0.081-0.215-0.090-0.29-0.053-0.065 0.032-0.108 0.033-0.153 0.004-0.066-0.043-0.217-0.015-0.217 0.040 0 0.018-0.020 0.033-0.043 0.033s-0.032-0.033-0.018-0.074c0.017-0.050 0.001-0.074-0.046-0.074-0.039 0-0.098-0.025-0.13-0.055-0.052-0.048-0.074-0.046-0.18 0.019-0.132 0.080-0.299 0.098-0.299 0.032 0-0.030-0.017-0.030-0.062-0.002-0.034 0.022-0.109 0.031-0.166 0.019-0.138-0.028-0.267 0.073-0.225 0.175 0.019 0.046 0.058 0.069 0.099 0.057 0.038-0.011 0.067 0.002 0.067 0.030 0 0.054-0.131 0.093-0.227 0.068-0.033-0.009-0.060-0.039-0.060-0.068 0-0.067-0.077-0.069-0.11-0.002-0.014 0.028 0.017 0.078 0.067 0.111 0.1 0.067 0.234 0.082 0.234 0.026 0-0.042 0.204-0.037 0.243 0.006 0.015 0.017 0.079 0.038 0.141 0.047s0.132 0.042 0.154 0.073c0.022 0.031 0.1 0.056 0.173 0.056 0.084 0 0.189 0.043 0.287 0.118 0.111 0.084 0.203 0.119 0.32 0.121 0.123 0.002 0.164 0.019 0.164 0.068 0 0.059 0.047 0.080 0.126 0.056 0.017-0.005 0.047 0.026 0.068 0.070 0.029 0.060 0.067 0.075 0.161 0.061 0.091-0.014 0.123-0.003 0.123 0.042 0 0.033 0.022 0.060 0.048 0.060s0.048 0.025 0.048 0.056c0 0.031 0.023 0.056 0.051 0.056s0.085 0.026 0.126 0.058c0.053 0.041 0.090 0.046 0.126 0.019 0.077-0.060 0.133-0.047 0.118 0.025-0.008 0.038 0.016 0.065 0.058 0.065 0.039 0 0.084 0.033 0.1 0.074s0.053 0.070 0.084 0.065c0.030-0.005 0.055 0.013 0.055 0.040s0.052 0.087 0.115 0.133c0.107 0.078 0.117 0.079 0.138 0.016 0.016-0.047 0.024-0.038 0.028 0.031s0.066 0.136 0.208 0.222c0.304 0.186 0.376 0.25 0.361 0.32-0.009 0.042 0.023 0.068 0.094 0.075 0.065 0.007 0.108 0.038 0.108 0.077 0 0.037 0.076 0.096 0.179 0.138 0.099 0.040 0.182 0.089 0.186 0.108 0.023 0.125 0.095 0.213 0.203 0.248 0.069 0.022 0.141 0.038 0.161 0.034s0.039 0.015 0.043 0.040c0.004 0.025 0.012 0.063 0.018 0.083s0.014 0.068 0.017 0.106c0.004 0.050 0.032 0.064 0.101 0.050 0.076-0.015 0.096-0.001 0.096 0.070 0 0.049 0.024 0.089 0.054 0.089 0.070 0 0.261 0.16 0.35 0.294 0.038 0.058 0.103 0.115 0.143 0.127s0.073 0.055 0.073 0.095 0.017 0.081 0.037 0.091c0.020 0.010 0.031-0.052 0.024-0.137-0.012-0.138-0.007-0.146 0.043-0.070 0.038 0.058 0.083 0.077 0.144 0.062 0.108-0.027 0.113 0.012 0.013 0.097-0.068 0.058-0.064 0.072 0.050 0.161 0.069 0.053 0.102 0.097 0.075 0.097-0.065 0-0.065 0.101 0 0.118 0.028 0.007 0.057 0.046 0.065 0.087 0.009 0.046 0.051 0.074 0.113 0.074 0.137 0 0.18 0.044 0.108 0.11-0.040 0.038-0.043 0.057-0.008 0.057 0.029 0 0.066 0.042 0.083 0.093s0.060 0.093 0.097 0.093c0.042 0 0.067 0.041 0.067 0.114 0 0.11 0.197 0.375 0.354 0.477 0.041 0.027 0.064 0.062 0.051 0.079s0.019 0.090 0.071 0.163c0.053 0.073 0.085 0.132 0.071 0.132-0.050 0 0.139 0.243 0.225 0.29 0.049 0.027 0.076 0.065 0.061 0.085s-0.008 0.056 0.018 0.081c0.026 0.025 0.062 0.12 0.080 0.212s0.085 0.229 0.149 0.305c0.063 0.076 0.115 0.173 0.115 0.214s0.036 0.138 0.079 0.214c0.043 0.076 0.075 0.153 0.070 0.171s0.036 0.070 0.091 0.116c0.073 0.060 0.092 0.109 0.069 0.178-0.020 0.061-0.004 0.126 0.045 0.18 0.042 0.046 0.076 0.156 0.076 0.244 0 0.104 0.024 0.167 0.068 0.18 0.037 0.011 0.080 0.045 0.095 0.075s0.006 0.045-0.020 0.032c-0.027-0.013-0.034 0.003-0.018 0.035s0.064 0.059 0.107 0.060 0.056 0.010 0.030 0.019c-0.058 0.019-0.031 0.312 0.029 0.312 0.023 0 0.028 0.026 0.012 0.059-0.024 0.049 0.018 0.185 0.165 0.535 0.032 0.076 0.052 0.2 0.077 0.478 0.012 0.13 0.042 0.247 0.067 0.26 0.044 0.022 0.057 0.115 0.074 0.542 0.004 0.102 0.028 0.197 0.052 0.21s0.050 0.097 0.057 0.185c0.007 0.088 0.014 0.17 0.015 0.183s0.055 0.069 0.118 0.126c0.097 0.087 0.105 0.112 0.051 0.154-0.035 0.027-0.086 0.050-0.113 0.050-0.068 0-0.008 0.519 0.070 0.608 0.045 0.051 0.049 0.090 0.012 0.143-0.029 0.042-0.035 0.13-0.016 0.207 0.019 0.074 0.041 0.544 0.049 1.044s0.017 0.946 0.018 0.992c0.002 0.046 0.052 0.121 0.111 0.167l0.107 0.083-0.113 0.012c-0.101 0.011-0.11 0.027-0.086 0.144 0.015 0.072 0.064 0.163 0.109 0.201 0.077 0.066 0.076 0.070-0.016 0.070-0.079 0-0.098 0.026-0.104 0.139-0.017 0.326-0.002 0.506 0.047 0.551 0.039 0.036 0.034 0.064-0.021 0.106-0.091 0.071-0.104 0.762-0.015 0.807 0.035 0.017 0.025 0.027-0.029 0.028-0.090 0.001-0.107 0.107-0.040 0.242 0.024 0.048 0.015 0.087-0.027 0.111-0.035 0.020-0.076 0.137-0.091 0.26s-0.035 0.272-0.044 0.333c-0.009 0.061 0.004 0.121 0.030 0.134 0.029 0.014 0.023 0.042-0.016 0.075-0.074 0.061-0.108 0.33-0.042 0.33 0.025 0 0.012 0.061-0.028 0.136s-0.066 0.198-0.057 0.274c0.012 0.099 0 0.132-0.044 0.119-0.054-0.016-0.086 0.059-0.065 0.151 0.004 0.017-0.028 0.134-0.072 0.26s-0.085 0.312-0.092 0.414c-0.007 0.102-0.027 0.219-0.044 0.26-0.025 0.059 0.004 0.089 0.14 0.146 0.139 0.058 0.158 0.078 0.098 0.104-0.041 0.018-0.096 0.022-0.122 0.010s-0.047-0.003-0.047 0.021c0 0.033-0.016 0.033-0.066 0.001-0.052-0.034-0.072-0.025-0.095 0.042-0.045 0.131-0.037 0.147 0.062 0.122 0.078-0.019 0.092-0.005 0.088 0.090-0.003 0.093-0.024 0.113-0.116 0.113-0.166 0-0.312 0.128-0.275 0.242 0.017 0.051-0.003 0.155-0.044 0.235-0.055 0.107-0.060 0.154-0.020 0.185s0.027 0.061-0.051 0.118c-0.080 0.058-0.1 0.107-0.085 0.204 0.012 0.074-0.003 0.14-0.036 0.156-0.031 0.015-0.083 0.086-0.116 0.158-0.051 0.109-0.049 0.136 0.010 0.17 0.054 0.031 0.057 0.051 0.015 0.083-0.031 0.024-0.081 0.043-0.113 0.043-0.082 0-0.256 0.306-0.291 0.511-0.016 0.096-0.059 0.208-0.094 0.248s-0.065 0.098-0.065 0.127c0 0.030-0.048 0.13-0.107 0.223-0.068 0.108-0.107 0.238-0.108 0.358-0 0.145-0.017 0.188-0.072 0.185-0.044-0.002-0.078 0.036-0.087 0.099-0.008 0.056-0.033 0.102-0.055 0.102-0.054 0-0.193 0.278-0.193 0.386 0 0.048-0.032 0.108-0.072 0.134-0.078 0.050-0.099 0.185-0.028 0.185 0.024 0 0.055-0.021 0.068-0.046 0.015-0.029 0.026-0.022 0.028 0.016 0.002 0.035-0.061 0.093-0.141 0.129s-0.134 0.087-0.121 0.113c0.013 0.026 0.005 0.047-0.018 0.047s-0.039 0.061-0.037 0.137c0.003 0.077-0.020 0.143-0.053 0.151s-0.058 0.036-0.058 0.063c0 0.026-0.032 0.069-0.072 0.094s-0.072 0.077-0.072 0.116-0.045 0.105-0.1 0.147c-0.065 0.050-0.093 0.109-0.079 0.166 0.012 0.048-0.002 0.095-0.031 0.105-0.035 0.011-0.031 0.029 0.012 0.052 0.055 0.030 0.055 0.039 0 0.058-0.050 0.018-0.051 0.028-0.006 0.044s0.043 0.034-0.010 0.075c-0.038 0.030-0.057 0.082-0.043 0.118 0.020 0.049 0.016 0.052-0.020 0.014-0.039-0.042-0.053-0.042-0.088 0-0.023 0.028-0.044 0.075-0.047 0.106s-0.008 0.085-0.012 0.12-0.039 0.065-0.079 0.065c-0.050 0-0.072 0.039-0.072 0.128 0 0.077-0.029 0.141-0.075 0.16-0.041 0.018-0.080 0.059-0.086 0.091s-0.039 0.084-0.073 0.116c-0.034 0.032-0.049 0.089-0.033 0.128 0.017 0.042-0.001 0.090-0.044 0.118-0.040 0.026-0.073 0.074-0.073 0.107s-0.043 0.11-0.095 0.172c-0.052 0.061-0.095 0.14-0.095 0.176s-0.017 0.065-0.038 0.065c-0.037 0-0.057 0.087-0.057 0.257-0 0.049-0.035 0.119-0.077 0.155s-0.065 0.080-0.051 0.098c0.014 0.018-0.016 0.056-0.067 0.085s-0.093 0.071-0.093 0.095c0 0.024-0.032 0.064-0.072 0.089-0.092 0.060-0.092 0.148 0 0.148 0.039 0 0.072-0.017 0.072-0.037s0.020-0.037 0.043-0.037c0.024 0 0.019 0.040-0.011 0.090-0.041 0.067-0.070 0.080-0.115 0.051-0.033-0.021-0.063-0.024-0.065-0.006s-0.012 0.096-0.020 0.173c-0.016 0.153-0.092 0.248-0.196 0.248-0.036 0-0.066 0.017-0.066 0.038s-0.037 0.082-0.082 0.135c-0.045 0.053-0.087 0.122-0.092 0.153s-0.037 0.068-0.068 0.083c-0.032 0.015-0.045 0.055-0.028 0.087 0.018 0.037-0.006 0.077-0.065 0.105-0.052 0.025-0.094 0.073-0.094 0.107s-0.052 0.071-0.12 0.084c-0.066 0.013-0.12 0.049-0.12 0.081 0 0.051-0.008 0.051-0.072 0.002-0.039-0.031-0.072-0.074-0.072-0.095s-0.022-0.040-0.049-0.040c-0.028 0-0.017-0.048 0.025-0.112 0.053-0.080 0.061-0.131 0.027-0.181-0.026-0.038-0.033-0.080-0.015-0.094s0.002-0.040-0.036-0.059c-0.060-0.029-0.060-0.036 0.001-0.054 0.059-0.017 0.067-0.106 0.046-0.549-0.013-0.29-0.043-0.551-0.066-0.579-0.027-0.032-0.018-0.062 0.024-0.083 0.053-0.026 0.053-0.032 0.003-0.033-0.035-0-0.091-0.022-0.125-0.049-0.051-0.040-0.047-0.063 0.021-0.128 0.067-0.064 0.076-0.111 0.044-0.239-0.022-0.088-0.041-0.172-0.042-0.187s-0.034-0.028-0.074-0.028-0.072-0.017-0.072-0.038c0-0.021 0.032-0.048 0.072-0.060 0.085-0.025 0.093-0.093 0.017-0.152-0.063-0.049-0.195 0.031-0.181 0.11 0.019 0.11-0.009 0.145-0.111 0.138-0.25-0.016-0.321-0-0.289 0.064 0.023 0.047 0.011 0.056-0.049 0.038-0.048-0.014-0.080-0.006-0.081 0.021-0 0.025-0.014 0.083-0.029 0.129-0.021 0.061-0.008 0.083 0.048 0.083 0.088 0 0.098 0.049 0.031 0.147-0.037 0.054-0.027 0.072 0.048 0.087 0.052 0.011 0.094 0.038 0.094 0.062 0 0.026-0.038 0.034-0.095 0.020-0.075-0.018-0.089-0.010-0.065 0.038 0.017 0.034 0.004 0.075-0.029 0.090s-0.063 0.089-0.068 0.163c-0.006 0.106 0.010 0.135 0.076 0.135 0.115 0 0.107 0.098-0.010 0.122-0.086 0.017-0.093 0.044-0.075 0.289 0.013 0.183-0.001 0.301-0.046 0.368-0.056 0.084-0.056 0.114 0 0.198 0.036 0.054 0.050 0.099 0.029 0.099s-0.027 0.050-0.016 0.111c0.012 0.061 0.049 0.111 0.082 0.111 0.092 0 0.124 0.102 0.041 0.127-0.102 0.030-0.123 0.027-0.089-0.015 0.017-0.021-0.003-0.027-0.049-0.013-0.063 0.019-0.066 0.030-0.014 0.055 0.052 0.026 0.051 0.039-0.008 0.069s-0.061 0.043-0.007 0.070c0.044 0.022 0.048 0.040 0.013 0.057-0.028 0.014-0.050 0.078-0.047 0.144s-0.001 0.136-0.007 0.156c-0.024 0.077 0.002 0.1 0.066 0.059 0.053-0.034 0.066-0.024 0.066 0.048 0 0.057-0.033 0.097-0.090 0.108-0.123 0.025-0.113 0.091 0.018 0.11l0.108 0.016-0.108 0.005c-0.146 0.007-0.158 0.19-0.012 0.19 0.053 0 0.096 0.015 0.096 0.034s-0.039 0.026-0.087 0.016c-0.105-0.021-0.214 0.070-0.192 0.162 0.009 0.037 0.064 0.083 0.123 0.103s0.105 0.053 0.102 0.074c-0.013 0.095 0.016 0.123 0.154 0.144 0.117 0.018 0.166 0.006 0.235-0.060 0.078-0.075 0.102-0.079 0.238-0.039 0.134 0.039 0.162 0.035 0.255-0.037 0.057-0.044 0.147-0.076 0.2-0.070 0.072 0.008 0.080 0.002 0.031-0.024-0.045-0.024-0.049-0.042-0.012-0.059 0.029-0.014 0.053-0.056 0.053-0.093 0-0.078 0.091-0.113 0.294-0.113 0.078 0 0.131-0.014 0.118-0.030-0.027-0.034 0.137-0.155 0.21-0.155 0.026 0 0.047-0.023 0.047-0.050 0-0.034 0.039-0.045 0.118-0.033 0.091 0.013 0.149-0.011 0.251-0.106 0.25-0.231 0.397-0.334 0.447-0.31 0.067 0.032 0.284-0.082 0.284-0.149 0-0.032 0.028-0.045 0.072-0.032 0.048 0.014 0.072-0.002 0.073-0.047 0.002-0.109 0.117-0.199 0.255-0.199 0.115 0 0.121-0.007 0.066-0.075-0.053-0.066-0.043-0.086 0.083-0.169 0.079-0.052 0.213-0.118 0.299-0.148 0.174-0.061 0.195-0.107 0.072-0.16-0.12-0.052-0.035-0.097 0.178-0.092 0.141 0.003 0.178-0.009 0.158-0.049-0.016-0.033 0.012-0.061 0.076-0.074 0.056-0.011 0.102-0.042 0.102-0.068 0-0.031-0.038-0.041-0.108-0.027l-0.108 0.020 0.113-0.078c0.154-0.107 0.295-0.137 0.351-0.075 0.034 0.037 0.040 0.029 0.023-0.030-0.016-0.058-0.004-0.075 0.044-0.061 0.036 0.011 0.066-0 0.066-0.024s0.087-0.109 0.194-0.188c0.107-0.079 0.19-0.166 0.186-0.192-0.029-0.173 0.003-0.214 0.166-0.214 0.137 0 0.159-0.011 0.139-0.071-0.016-0.048 0.016-0.091 0.102-0.135 0.069-0.035 0.137-0.055 0.152-0.043 0.033 0.026 0.183-0.089 0.264-0.202 0.061-0.086 0.072-0.108 0.083-0.179 0.003-0.020 0.049-0.037 0.102-0.037 0.054 0 0.096-0.025 0.096-0.057 0-0.032 0.064-0.086 0.143-0.12 0.175-0.077 0.184-0.14 0.024-0.171-0.066-0.013-0.12-0.049-0.12-0.081 0-0.040 0.028-0.050 0.095-0.034 0.071 0.017 0.088 0.010 0.068-0.031-0.044-0.089-0.208-0.102-0.273-0.022-0.031 0.039-0.088 0.071-0.125 0.071s-0.054 0.011-0.037 0.024c0.034 0.027-0.297 0.233-0.376 0.235-0.051 0.001-0.212 0.25-0.212 0.329 0 0.024 0.035 0.043 0.078 0.043 0.064 0 0.067 0.010 0.018 0.056-0.033 0.031-0.095 0.056-0.137 0.056-0.067 0-0.068 0.006-0.008 0.035 0.039 0.019 0.054 0.047 0.033 0.063-0.046 0.036-0.131-0.064-0.094-0.111 0.025-0.031-0.066-0.098-0.135-0.099-0.017-0-0.042 0.033-0.055 0.073s-0.065 0.086-0.113 0.1c-0.137 0.041-0.258 0.17-0.24 0.256 0.013 0.061-0.004 0.074-0.071 0.061-0.048-0.010-0.088-0.033-0.088-0.051s-0.055-0.006-0.122 0.029c-0.076 0.038-0.102 0.072-0.070 0.087 0.096 0.046-0.004 0.144-0.158 0.156-0.137 0.010-0.153 0.024-0.166 0.151-0.014 0.128-0.022 0.136-0.115 0.098-0.086-0.036-0.096-0.033-0.068 0.023 0.024 0.049 0.012 0.060-0.054 0.047-0.106-0.021-0.221 0.067-0.184 0.141 0.018 0.036-0.016 0.068-0.096 0.091-0.154 0.045-0.236 0.012-0.155-0.064 0.033-0.031 0.063-0.108 0.067-0.173 0.011-0.19 0.019-0.21 0.082-0.21 0.058 0 0.179-0.237 0.179-0.35 0-0.030 0.031-0.068 0.069-0.084 0.040-0.017 0.078-0.104 0.089-0.207 0.011-0.097 0.033-0.187 0.049-0.199s0.009-0.051-0.015-0.086c-0.037-0.054-0.026-0.061 0.073-0.046 0.071 0.011 0.117 0 0.117-0.026 0-0.024-0.021-0.033-0.048-0.021-0.127 0.061-0.030-0.085 0.169-0.254 0.058-0.050 0.163-0.315 0.156-0.395-0.016-0.183 0.015-0.297 0.083-0.297 0.040 0 0.087-0.029 0.103-0.065s0.057-0.090 0.090-0.121c0.033-0.031 0.067-0.106 0.075-0.167s0.054-0.167 0.102-0.235c0.048-0.068 0.073-0.156 0.058-0.195s-0.006-0.071 0.022-0.071c0.028 0 0.051-0.042 0.051-0.093s0.023-0.093 0.051-0.093c0.028 0 0.037-0.017 0.021-0.037s0.015-0.086 0.069-0.145c0.054-0.059 0.099-0.126 0.099-0.148s0.021-0.041 0.048-0.041c0.026 0 0.048-0.038 0.048-0.085s0.019-0.101 0.043-0.12c0.023-0.019 0.098-0.176 0.165-0.349 0.097-0.249 0.11-0.325 0.065-0.369s-0.044-0.049 0.006-0.025c0.075 0.035 0.241-0.087 0.211-0.155-0.011-0.025 0.025-0.102 0.080-0.17s0.1-0.171 0.1-0.228c0-0.056 0.032-0.121 0.071-0.144s0.079-0.075 0.088-0.115 0.030-0.099 0.044-0.13c0.091-0.188 0.12-0.301 0.097-0.37-0.017-0.049 0.003-0.095 0.054-0.124 0.045-0.025 0.083-0.099 0.085-0.165s0.025-0.119 0.050-0.119 0.034-0.023 0.020-0.052c-0.014-0.028 0.018-0.088 0.072-0.133 0.070-0.058 0.090-0.111 0.070-0.186-0.018-0.070-0.005-0.111 0.038-0.124 0.036-0.011 0.101-0.142 0.144-0.291s0.111-0.309 0.15-0.356 0.060-0.099 0.046-0.116c-0.014-0.017 0.008-0.083 0.048-0.146 0.072-0.112 0.071-0.324-0.003-0.46-0.028-0.052-0.010-0.065 0.090-0.065 0.079 0 0.125-0.020 0.125-0.056 0-0.031 0.018-0.056 0.040-0.056s0.043-0.060 0.047-0.134c0.004-0.074 0.030-0.156 0.059-0.183 0.060-0.056 0.105-0.245 0.097-0.403-0.003-0.060 0.019-0.12 0.050-0.135s0.065-0.116 0.076-0.225c0.031-0.29 0.030-0.338-0.010-0.433-0.028-0.067-0.016-0.090 0.059-0.105 0.097-0.020 0.097-0.022 0.133-0.496 0.014-0.192 0.039-0.284 0.087-0.32 0.018-0.014 0.033-0.103 0.033-0.198s0.020-0.188 0.045-0.207c0.037-0.029 0.057-0.264 0.048-0.573-0.001-0.031 0.022-0.131 0.050-0.222 0.076-0.248 0.092-0.458 0.038-0.509-0.027-0.026-0.031-0.075-0.010-0.111 0.051-0.087 0.068-0.788 0.018-0.788-0.021 0-0.009-0.046 0.028-0.103 0.041-0.064 0.062-0.195 0.054-0.343-0.013-0.248-0.055-0.349-0.131-0.313-0.024 0.012-0.031-0.005-0.015-0.036s0.050-0.058 0.077-0.058c0.028 0 0.023-0.024-0.011-0.056-0.048-0.045-0.046-0.056 0.011-0.056s0.068-0.054 0.054-0.302c-0.009-0.166-0.027-0.31-0.040-0.32s-0.006-0.045 0.015-0.078 0.024-0.119 0.008-0.191zM9.451 27.204c-0.012-0.025-0.090-0.044-0.173-0.042-0.102 0.003-0.12 0.010-0.056 0.023 0.053 0.010 0.123 0.035 0.157 0.057 0.071 0.045 0.102 0.029 0.072-0.037zM9.342 16.961c-0.026 0-0.048-0.018-0.048-0.039s0.021-0.029 0.048-0.016c0.026 0.013 0.048 0.030 0.048 0.039s-0.021 0.016-0.048 0.016zM9.212 27.381c-0.094 0-0.205 0.066-0.205 0.121 0 0.017 0.027 0.019 0.060 0.003s0.090-0.029 0.127-0.030c0.104-0.002 0.121-0.094 0.018-0.094zM9.122 10.424c-0.016-0.012-0.018-0.044-0.004-0.071 0.015-0.030 0.027-0.021 0.029 0.022 0.002 0.039-0.009 0.061-0.025 0.049zM9.055 27.288c-0.026-0.013-0.048 0.003-0.048 0.035s0.021 0.058 0.048 0.058c0.026 0 0.048-0.016 0.048-0.035s-0.021-0.045-0.048-0.058zM8.909 9.804c-0.025 0-0.045-0.017-0.045-0.037s0.034-0.037 0.075-0.037c0.041 0 0.061 0.017 0.045 0.037s-0.050 0.037-0.075 0.037zM8.89 7.913c-0.012 0-0.034-0.017-0.051-0.037s-0.007-0.037 0.021-0.037c0.028 0 0.051 0.017 0.051 0.037s-0.009 0.037-0.021 0.037zM8.421 7.826c-0.033-0.010-0.006-0.019 0.060-0.019s0.093 0.008 0.060 0.019c-0.033 0.010-0.087 0.010-0.12 0zM8.051 7.394c-0.026 0-0.047-0.029-0.047-0.065 0.001-0.055 0.008-0.057 0.047-0.009 0.058 0.070 0.058 0.074 0 0.074zM7.703 24.233c-0.078-0.060-0.005-0.095 0.077-0.036 0.039 0.028 0.049 0.056 0.023 0.064s-0.071-0.005-0.1-0.027zM7.764 6.708c-0.026 0.013-0.048 0.005-0.048-0.016s0.021-0.039 0.048-0.039c0.026 0 0.048 0.007 0.048 0.016s-0.021 0.027-0.048 0.039zM7.405 28.53c-0.039 0-0.072-0.017-0.072-0.037s0.032-0.037 0.072-0.037c0.039 0 0.072 0.017 0.072 0.037s-0.032 0.037-0.072 0.037zM5.66 29.791c-0.026 0-0.048-0.007-0.048-0.016s0.021-0.027 0.048-0.039c0.026-0.013 0.048-0.005 0.048 0.016s-0.021 0.039-0.048 0.039zM3.245 29.605c-0.039 0-0.072-0.017-0.072-0.037s0.032-0.037 0.072-0.037 0.072 0.017 0.072 0.037c0 0.020-0.032 0.037-0.072 0.037zM3.153 1.349c-0.012 0-0.034-0.017-0.051-0.037s-0.007-0.037 0.021-0.037c0.028 0 0.051 0.017 0.051 0.037s-0.009 0.037-0.021 0.037zM3.102 29.828c-0.039 0-0.072-0.017-0.072-0.037s-0.036-0.037-0.080-0.037c-0.044 0-0.066-0.010-0.050-0.023 0.043-0.033 0.273 0.018 0.273 0.061 0 0.020-0.032 0.036-0.072 0.036zM2.888 28.494c-0.059-0.075-0.010-0.122 0.069-0.066 0.042 0.029 0.049 0.059 0.019 0.083s-0.060 0.018-0.088-0.017zM2.965 28.823c-0.069 0.045-0.221 0.019-0.221-0.037 0-0.018 0.032-0.033 0.072-0.033s0.072-0.027 0.072-0.060c0-0.049 0.013-0.052 0.072-0.014 0.089 0.057 0.090 0.090 0.006 0.144zM2.922 31.242c-0.047-0.037-0.041-0.041 0.027-0.021 0.047 0.014 0.074 0.035 0.059 0.046s-0.053 0-0.086-0.025zM2.851 28.121c-0.113-0.001-0.12-0.006-0.047-0.039 0.046-0.021 0.105-0.028 0.131-0.015 0.080 0.038 0.053 0.055-0.084 0.054zM2.74 29.309c-0.054 0-0.085-0.017-0.069-0.037s0.061-0.037 0.098-0.037 0.069 0.017 0.069 0.037c0 0.020-0.044 0.037-0.098 0.037zM2.672 30.162c-0.039 0-0.072-0.024-0.072-0.054 0-0.033 0.028-0.046 0.072-0.033 0.039 0.012 0.072 0.036 0.072 0.054s-0.032 0.033-0.072 0.033zM2.431 0.681c-0.040-0.026-0.063-0.055-0.051-0.064 0.033-0.026 0.124 0.027 0.124 0.071 0 0.025-0.027 0.022-0.073-0.007zM2.053 1.016c-0.012 0-0.034-0.017-0.051-0.037s-0.007-0.037 0.021-0.037c0.028 0 0.051 0.017 0.051 0.037s-0.009 0.037-0.021 0.037z"></path>
</symbol>
<symbol id="icon-Right-arrow-curved-deg" viewBox="0 0 11 32">
<path fill="#6966ff" style="fill: var(--color1, #6966ff)" d="M0.033 14.030c0.017-0.072 0.046-0.15 0.064-0.174s0.012-0.053-0.015-0.066c-0.062-0.030-0.064-0.167-0.002-0.167 0.028 0 0.025-0.037-0.008-0.093-0.043-0.073-0.040-0.114 0.013-0.191 0.051-0.074 0.053-0.102 0.010-0.113s-0.044-0.037-0.003-0.108c0.037-0.063 0.039-0.101 0.005-0.118-0.027-0.014-0.053-0.095-0.057-0.181-0.006-0.122 0.016-0.168 0.099-0.213 0.058-0.032 0.083-0.057 0.056-0.057-0.055 0-0.085-0.429-0.035-0.492 0.017-0.021 0.026-0.147 0.020-0.278-0.009-0.203 0.005-0.252 0.095-0.327 0.082-0.068 0.094-0.099 0.051-0.139-0.079-0.074-0.054-0.369 0.035-0.42 0.060-0.034 0.063-0.053 0.014-0.098-0.043-0.040-0.045-0.060-0.006-0.070 0.034-0.009 0.054-0.129 0.055-0.328 0.001-0.173 0.035-0.406 0.076-0.518s0.070-0.259 0.063-0.326c-0.007-0.067 0.010-0.143 0.037-0.169s0.050-0.079 0.051-0.119c0.003-0.152 0.066-0.372 0.126-0.443 0.034-0.041 0.061-0.143 0.060-0.226s0.019-0.184 0.046-0.222c0.027-0.039 0.064-0.15 0.083-0.247s0.053-0.176 0.076-0.176c0.023 0 0.042-0.030 0.042-0.066s0.032-0.102 0.072-0.145c0.039-0.044 0.059-0.106 0.043-0.138s0.016-0.125 0.070-0.206c0.062-0.092 0.081-0.156 0.050-0.17s-0.032-0.040-0.005-0.066c0.024-0.024 0.111-0.182 0.194-0.353s0.192-0.351 0.243-0.401c0.051-0.050 0.081-0.115 0.066-0.145-0.018-0.036 0.007-0.053 0.080-0.053 0.080 0 0.094-0.012 0.057-0.046-0.034-0.032-0.029-0.091 0.017-0.195 0.037-0.082 0.067-0.153 0.067-0.158s0.049-0.010 0.108-0.010c0.078-0 0.090-0.009 0.043-0.032-0.054-0.026-0.054-0.045-0-0.111 0.035-0.044 0.077-0.079 0.094-0.079s0.044-0.071 0.062-0.158c0.046-0.229 0.175-0.473 0.25-0.473 0.036 0 0.065-0.024 0.065-0.054s0.053-0.098 0.119-0.153c0.065-0.055 0.107-0.113 0.094-0.131s0.019-0.061 0.073-0.096c0.054-0.036 0.098-0.103 0.098-0.149 0-0.051 0.029-0.084 0.073-0.084 0.040 0 0.093-0.042 0.118-0.093s0.084-0.093 0.13-0.093c0.063-0 0.069-0.008 0.023-0.031-0.049-0.024-0.045-0.054 0.024-0.148 0.047-0.064 0.113-0.117 0.146-0.117s0.060-0.034 0.060-0.074 0.017-0.074 0.038-0.074c0.021 0 0.085-0.075 0.143-0.167s0.126-0.167 0.153-0.167 0.048-0.025 0.048-0.056c0-0.031 0.043-0.056 0.096-0.056s0.096-0.025 0.096-0.056c0-0.031 0.021-0.056 0.048-0.056s0.048-0.021 0.048-0.046c0-0.069 0.286-0.317 0.289-0.25 0.001 0.031 0.029-0.003 0.062-0.074s0.118-0.178 0.189-0.237c0.071-0.059 0.129-0.122 0.129-0.139s0.032-0.032 0.071-0.032c0.039 0 0.101-0.046 0.139-0.103s0.168-0.169 0.288-0.248c0.121-0.080 0.219-0.163 0.219-0.185 0-0.050 0.278-0.242 0.352-0.242 0.030-0 0.091-0.050 0.135-0.11s0.136-0.12 0.203-0.134c0.067-0.013 0.123-0.042 0.123-0.064 0-0.065 0.25-0.248 0.339-0.248 0.045 0 0.094-0.025 0.109-0.056s0.063-0.056 0.107-0.056 0.115-0.029 0.157-0.065c0.106-0.089 0.272-0.158 0.38-0.158 0.049 0 0.137-0.032 0.196-0.072s0.135-0.063 0.17-0.053c0.038 0.011 0.060-0.006 0.056-0.045-0.011-0.097 0.090-0.102 0.154-0.008 0.031 0.046 0.048 0.058 0.036 0.025-0.018-0.051 0.116-0.182 0.187-0.182 0.013 0 0.114-0.044 0.223-0.097 0.165-0.081 0.215-0.090 0.29-0.053 0.065 0.032 0.108 0.033 0.153 0.004 0.066-0.043 0.217-0.015 0.217 0.040 0 0.018 0.020 0.033 0.043 0.033s0.032-0.033 0.018-0.074c-0.017-0.050-0.002-0.074 0.046-0.074 0.039 0 0.098-0.025 0.13-0.055 0.052-0.048 0.074-0.046 0.18 0.019 0.132 0.080 0.299 0.098 0.299 0.032 0-0.030 0.017-0.030 0.062-0.002 0.034 0.022 0.109 0.031 0.166 0.019 0.137-0.028 0.267 0.073 0.225 0.175-0.019 0.046-0.058 0.069-0.099 0.057-0.037-0.011-0.067 0.002-0.067 0.030 0 0.054 0.13 0.093 0.227 0.068 0.033-0.009 0.060-0.039 0.060-0.068 0-0.067 0.078-0.069 0.11-0.002 0.014 0.028-0.017 0.078-0.067 0.111-0.1 0.067-0.234 0.082-0.234 0.026 0-0.042-0.204-0.037-0.243 0.006-0.015 0.017-0.079 0.038-0.141 0.047s-0.132 0.042-0.154 0.073c-0.022 0.031-0.1 0.056-0.173 0.056-0.084 0-0.189 0.043-0.287 0.118-0.111 0.084-0.203 0.119-0.32 0.121-0.123 0.002-0.164 0.019-0.164 0.068-0 0.059-0.047 0.080-0.126 0.056-0.017-0.005-0.047 0.026-0.068 0.070-0.029 0.060-0.066 0.075-0.161 0.061-0.091-0.014-0.123-0.003-0.123 0.042 0 0.033-0.021 0.060-0.048 0.060s-0.048 0.025-0.048 0.056-0.023 0.056-0.051 0.056c-0.028 0-0.085 0.026-0.126 0.058-0.053 0.041-0.090 0.046-0.126 0.019-0.077-0.060-0.133-0.047-0.117 0.025 0.008 0.038-0.016 0.065-0.058 0.065-0.039 0-0.084 0.033-0.1 0.074s-0.053 0.070-0.084 0.065c-0.030-0.005-0.056 0.013-0.056 0.040s-0.052 0.087-0.115 0.133c-0.107 0.078-0.117 0.079-0.138 0.016-0.016-0.047-0.024-0.038-0.028 0.031s-0.066 0.136-0.208 0.222c-0.304 0.186-0.376 0.25-0.361 0.32 0.009 0.042-0.023 0.068-0.094 0.075-0.065 0.007-0.108 0.038-0.108 0.077 0 0.037-0.076 0.096-0.179 0.138-0.099 0.040-0.182 0.089-0.186 0.108-0.023 0.125-0.095 0.213-0.203 0.248-0.069 0.022-0.141 0.038-0.161 0.034s-0.039 0.015-0.043 0.040c-0.004 0.025-0.012 0.063-0.018 0.083s-0.014 0.068-0.017 0.106c-0.004 0.050-0.032 0.064-0.101 0.050-0.076-0.015-0.096-0.001-0.096 0.070 0 0.049-0.024 0.089-0.054 0.089-0.070 0-0.261 0.16-0.35 0.294-0.038 0.058-0.103 0.115-0.143 0.127s-0.073 0.055-0.073 0.095-0.017 0.081-0.037 0.091c-0.020 0.010-0.031-0.052-0.024-0.137 0.012-0.138 0.007-0.146-0.043-0.070-0.038 0.058-0.083 0.077-0.144 0.062-0.108-0.027-0.113 0.012-0.013 0.097 0.068 0.058 0.064 0.072-0.050 0.161-0.069 0.053-0.102 0.097-0.075 0.097 0.065 0 0.065 0.101-0 0.118-0.028 0.007-0.057 0.046-0.065 0.087-0.009 0.046-0.051 0.074-0.113 0.074-0.137 0-0.18 0.044-0.108 0.11 0.040 0.038 0.043 0.057 0.008 0.057-0.029 0-0.066 0.042-0.083 0.093s-0.060 0.093-0.097 0.093c-0.042 0-0.067 0.041-0.067 0.114 0 0.11-0.197 0.375-0.354 0.477-0.041 0.027-0.064 0.062-0.051 0.079s-0.019 0.090-0.071 0.163c-0.053 0.073-0.085 0.132-0.071 0.132 0.050 0-0.139 0.243-0.225 0.29-0.049 0.027-0.076 0.065-0.061 0.085s0.008 0.056-0.018 0.081c-0.026 0.025-0.062 0.12-0.080 0.212s-0.086 0.229-0.149 0.305c-0.063 0.076-0.115 0.173-0.115 0.214s-0.036 0.138-0.079 0.214c-0.043 0.076-0.075 0.153-0.070 0.171s-0.036 0.070-0.091 0.116c-0.073 0.060-0.092 0.109-0.069 0.178 0.020 0.061 0.003 0.126-0.045 0.18-0.042 0.046-0.076 0.156-0.076 0.244 0 0.104-0.024 0.167-0.068 0.18-0.037 0.011-0.080 0.045-0.095 0.075s-0.006 0.045 0.020 0.032c0.026-0.013 0.034 0.003 0.018 0.035s-0.064 0.059-0.107 0.060-0.056 0.010-0.030 0.019c0.058 0.019 0.031 0.312-0.029 0.312-0.023 0-0.028 0.026-0.012 0.059 0.024 0.049-0.018 0.185-0.165 0.535-0.032 0.076-0.052 0.2-0.077 0.478-0.012 0.13-0.042 0.247-0.067 0.26-0.044 0.022-0.057 0.115-0.074 0.542-0.004 0.102-0.028 0.197-0.052 0.21s-0.050 0.097-0.057 0.185c-0.007 0.088-0.014 0.17-0.015 0.183s-0.055 0.069-0.118 0.126c-0.097 0.087-0.105 0.112-0.051 0.154 0.035 0.027 0.086 0.050 0.113 0.050 0.068 0 0.008 0.519-0.070 0.608-0.045 0.051-0.049 0.090-0.013 0.143 0.029 0.042 0.035 0.13 0.016 0.207-0.019 0.074-0.041 0.544-0.049 1.044s-0.017 0.946-0.018 0.992c-0.002 0.046-0.052 0.121-0.111 0.167l-0.107 0.083 0.113 0.012c0.101 0.011 0.11 0.027 0.086 0.144-0.015 0.072-0.064 0.163-0.109 0.201-0.077 0.066-0.076 0.070 0.016 0.070 0.079 0 0.098 0.026 0.104 0.139 0.017 0.326 0.002 0.506-0.047 0.551-0.039 0.036-0.034 0.064 0.021 0.106 0.091 0.071 0.104 0.762 0.015 0.807-0.035 0.017-0.025 0.027 0.029 0.028 0.090 0.001 0.107 0.107 0.040 0.242-0.024 0.048-0.015 0.087 0.027 0.111 0.035 0.020 0.076 0.137 0.091 0.26s0.035 0.272 0.044 0.333c0.009 0.061-0.004 0.121-0.030 0.134-0.029 0.014-0.023 0.042 0.016 0.075 0.074 0.061 0.108 0.33 0.042 0.33-0.025 0-0.012 0.061 0.028 0.136s0.066 0.198 0.057 0.274c-0.012 0.099-0 0.132 0.044 0.119 0.054-0.016 0.086 0.059 0.065 0.151-0.004 0.017 0.028 0.134 0.072 0.26s0.085 0.312 0.092 0.414 0.027 0.219 0.044 0.26c0.025 0.059-0.004 0.089-0.14 0.146-0.139 0.058-0.158 0.078-0.098 0.104 0.041 0.018 0.096 0.022 0.122 0.010s0.047-0.003 0.047 0.021c0 0.033 0.016 0.033 0.066 0.001 0.052-0.034 0.072-0.025 0.095 0.042 0.045 0.131 0.037 0.147-0.062 0.122-0.078-0.019-0.092-0.005-0.088 0.090 0.003 0.093 0.024 0.113 0.116 0.113 0.166 0 0.312 0.128 0.275 0.242-0.017 0.051 0.003 0.155 0.044 0.235 0.055 0.107 0.060 0.154 0.020 0.185s-0.027 0.061 0.051 0.118c0.080 0.058 0.1 0.107 0.085 0.204-0.012 0.074 0.003 0.14 0.036 0.156 0.031 0.015 0.083 0.086 0.116 0.158 0.051 0.109 0.049 0.136-0.010 0.17-0.054 0.031-0.057 0.051-0.015 0.083 0.031 0.024 0.081 0.043 0.113 0.043 0.082 0 0.256 0.306 0.291 0.511 0.016 0.096 0.059 0.208 0.094 0.248s0.065 0.098 0.065 0.127c0 0.030 0.048 0.13 0.107 0.223 0.068 0.108 0.107 0.238 0.108 0.358 0 0.145 0.017 0.188 0.072 0.185 0.044-0.002 0.078 0.036 0.087 0.099 0.008 0.056 0.033 0.102 0.055 0.102 0.054 0 0.193 0.278 0.193 0.386 0 0.048 0.032 0.108 0.072 0.134 0.078 0.050 0.099 0.185 0.028 0.185-0.024 0-0.055-0.021-0.068-0.046-0.015-0.029-0.026-0.022-0.028 0.016-0.002 0.035 0.061 0.093 0.141 0.129s0.134 0.087 0.121 0.113c-0.013 0.026-0.005 0.047 0.018 0.047s0.039 0.061 0.037 0.137c-0.003 0.077 0.020 0.143 0.053 0.151s0.058 0.036 0.058 0.063c0 0.026 0.032 0.069 0.072 0.094s0.072 0.077 0.072 0.116 0.045 0.105 0.1 0.147c0.065 0.050 0.093 0.109 0.079 0.166-0.012 0.048 0.002 0.095 0.031 0.105 0.035 0.011 0.031 0.029-0.012 0.052-0.055 0.030-0.055 0.039 0 0.058 0.050 0.018 0.051 0.028 0.006 0.044s-0.043 0.034 0.010 0.075c0.038 0.030 0.057 0.082 0.043 0.118-0.020 0.049-0.016 0.052 0.020 0.014 0.039-0.042 0.053-0.042 0.088 0 0.023 0.028 0.044 0.075 0.047 0.106s0.008 0.085 0.012 0.12 0.039 0.065 0.079 0.065c0.050 0 0.072 0.039 0.072 0.128 0 0.077 0.029 0.141 0.075 0.16 0.041 0.018 0.080 0.059 0.086 0.091s0.039 0.084 0.073 0.116c0.034 0.032 0.049 0.089 0.033 0.128-0.017 0.042 0.001 0.090 0.044 0.118 0.040 0.026 0.073 0.074 0.073 0.107s0.043 0.11 0.095 0.172c0.052 0.061 0.095 0.14 0.095 0.176s0.017 0.065 0.038 0.065c0.037 0 0.057 0.087 0.057 0.257 0 0.049 0.035 0.119 0.077 0.155s0.065 0.080 0.051 0.098c-0.014 0.018 0.016 0.056 0.067 0.085s0.093 0.071 0.093 0.095c0 0.024 0.032 0.064 0.072 0.089 0.092 0.060 0.092 0.148 0 0.148-0.039 0-0.072-0.017-0.072-0.037s-0.020-0.037-0.043-0.037c-0.024 0-0.019 0.040 0.011 0.090 0.041 0.067 0.070 0.080 0.115 0.051 0.033-0.021 0.063-0.024 0.065-0.006s0.012 0.096 0.020 0.173c0.016 0.153 0.092 0.248 0.196 0.248 0.036 0 0.066 0.017 0.066 0.038s0.037 0.082 0.082 0.135c0.045 0.053 0.087 0.122 0.092 0.153s0.037 0.068 0.068 0.083c0.032 0.015 0.045 0.055 0.028 0.087-0.018 0.037 0.006 0.077 0.065 0.105 0.052 0.025 0.094 0.073 0.094 0.107s0.052 0.071 0.12 0.084c0.066 0.013 0.12 0.049 0.12 0.081 0 0.051 0.008 0.051 0.072 0.002 0.039-0.031 0.072-0.074 0.072-0.095s0.022-0.040 0.049-0.040c0.028 0 0.017-0.048-0.025-0.112-0.053-0.080-0.061-0.131-0.027-0.181 0.026-0.038 0.033-0.080 0.015-0.094s-0.002-0.040 0.036-0.059c0.060-0.029 0.060-0.036-0.001-0.054-0.059-0.017-0.067-0.106-0.046-0.549 0.013-0.29 0.043-0.551 0.066-0.579 0.027-0.032 0.019-0.062-0.024-0.083-0.052-0.026-0.053-0.032-0.003-0.033 0.035-0 0.091-0.022 0.125-0.049 0.051-0.040 0.047-0.063-0.021-0.128-0.067-0.064-0.076-0.111-0.044-0.239 0.022-0.088 0.041-0.172 0.042-0.187s0.034-0.028 0.074-0.028 0.072-0.017 0.072-0.038c0-0.021-0.032-0.048-0.072-0.060-0.085-0.025-0.093-0.093-0.017-0.152 0.063-0.049 0.195 0.031 0.181 0.11-0.019 0.11 0.009 0.145 0.111 0.138 0.25-0.016 0.321-0 0.289 0.064-0.023 0.047-0.011 0.056 0.049 0.038 0.048-0.014 0.080-0.006 0.081 0.021 0 0.025 0.014 0.083 0.029 0.129 0.021 0.061 0.008 0.083-0.048 0.083-0.088 0-0.098 0.049-0.031 0.147 0.037 0.054 0.027 0.072-0.048 0.087-0.052 0.011-0.095 0.038-0.095 0.062 0 0.026 0.037 0.034 0.095 0.020 0.075-0.018 0.089-0.010 0.065 0.038-0.017 0.034-0.004 0.075 0.029 0.090s0.063 0.089 0.068 0.163c0.006 0.106-0.010 0.135-0.076 0.135-0.115 0-0.107 0.098 0.010 0.122 0.086 0.017 0.093 0.044 0.075 0.289-0.013 0.183 0.001 0.301 0.046 0.368 0.056 0.084 0.056 0.114-0 0.198-0.036 0.054-0.050 0.099-0.029 0.099s0.027 0.050 0.016 0.111c-0.012 0.061-0.049 0.111-0.082 0.111-0.091 0-0.124 0.102-0.041 0.127 0.102 0.030 0.123 0.027 0.089-0.015-0.017-0.021 0.003-0.027 0.049-0.013 0.063 0.019 0.066 0.030 0.014 0.055-0.052 0.026-0.051 0.039 0.008 0.069s0.061 0.043 0.007 0.070c-0.044 0.022-0.048 0.040-0.013 0.057 0.028 0.014 0.050 0.078 0.047 0.144s0.001 0.136 0.007 0.156c0.024 0.077-0.002 0.1-0.066 0.059-0.053-0.034-0.066-0.024-0.066 0.048 0 0.057 0.033 0.097 0.090 0.108 0.123 0.025 0.113 0.091-0.018 0.11l-0.108 0.016 0.108 0.005c0.146 0.007 0.158 0.19 0.012 0.19-0.053 0-0.096 0.015-0.096 0.034s0.039 0.026 0.087 0.016c0.105-0.021 0.214 0.070 0.192 0.162-0.009 0.037-0.064 0.083-0.123 0.103s-0.105 0.053-0.102 0.074c0.013 0.095-0.016 0.123-0.154 0.144-0.117 0.018-0.166 0.006-0.235-0.060-0.078-0.075-0.102-0.079-0.238-0.039-0.134 0.039-0.162 0.035-0.255-0.037-0.057-0.044-0.147-0.076-0.2-0.070-0.072 0.008-0.080 0.002-0.031-0.024 0.045-0.024 0.049-0.042 0.012-0.059-0.029-0.014-0.053-0.056-0.053-0.093 0-0.078-0.091-0.113-0.294-0.113-0.078 0-0.131-0.014-0.118-0.030 0.027-0.034-0.137-0.155-0.21-0.155-0.026 0-0.047-0.023-0.047-0.050 0-0.034-0.039-0.045-0.118-0.033-0.091 0.013-0.149-0.011-0.251-0.106-0.25-0.231-0.397-0.334-0.447-0.31-0.067 0.032-0.284-0.082-0.284-0.149 0-0.032-0.028-0.045-0.072-0.032-0.048 0.014-0.072-0.002-0.073-0.047-0.002-0.109-0.117-0.199-0.255-0.199-0.115 0-0.121-0.007-0.066-0.075 0.053-0.066 0.043-0.086-0.083-0.169-0.079-0.052-0.213-0.118-0.299-0.148-0.174-0.061-0.195-0.107-0.072-0.16 0.12-0.052 0.035-0.097-0.178-0.092-0.141 0.003-0.178-0.009-0.158-0.049 0.016-0.033-0.012-0.061-0.076-0.074-0.056-0.011-0.102-0.042-0.102-0.068 0-0.031 0.038-0.041 0.108-0.027l0.108 0.020-0.113-0.078c-0.154-0.107-0.295-0.137-0.351-0.075-0.034 0.037-0.040 0.029-0.023-0.030 0.016-0.058 0.004-0.075-0.044-0.061-0.036 0.011-0.066 0-0.066-0.024s-0.087-0.109-0.194-0.188c-0.107-0.079-0.19-0.166-0.186-0.192 0.029-0.173-0.003-0.214-0.166-0.214-0.137 0-0.159-0.011-0.139-0.071 0.016-0.048-0.016-0.091-0.102-0.135-0.069-0.035-0.137-0.055-0.152-0.043-0.033 0.026-0.183-0.089-0.264-0.202-0.061-0.086-0.072-0.108-0.083-0.179-0.003-0.020-0.049-0.037-0.102-0.037-0.054 0-0.096-0.025-0.096-0.057 0-0.032-0.064-0.086-0.143-0.12-0.175-0.077-0.184-0.14-0.024-0.171 0.066-0.013 0.12-0.049 0.12-0.081 0-0.040-0.028-0.050-0.095-0.034-0.071 0.017-0.088 0.010-0.068-0.031 0.044-0.089 0.208-0.102 0.273-0.022 0.031 0.039 0.088 0.071 0.125 0.071s0.054 0.011 0.037 0.024c-0.034 0.027 0.297 0.233 0.376 0.235 0.051 0.001 0.212 0.25 0.212 0.329 0 0.024-0.035 0.043-0.078 0.043-0.064 0-0.067 0.010-0.018 0.056 0.033 0.031 0.095 0.056 0.137 0.056 0.067 0 0.068 0.006 0.007 0.035-0.039 0.019-0.054 0.047-0.033 0.063 0.046 0.036 0.131-0.064 0.094-0.111-0.025-0.031 0.066-0.098 0.135-0.099 0.017-0 0.042 0.033 0.055 0.073s0.065 0.086 0.113 0.1c0.137 0.041 0.258 0.17 0.24 0.256-0.013 0.061 0.004 0.074 0.071 0.061 0.048-0.010 0.088-0.033 0.088-0.051s0.055-0.006 0.122 0.029c0.076 0.038 0.102 0.072 0.070 0.087-0.096 0.046 0.004 0.144 0.158 0.156 0.137 0.010 0.153 0.024 0.166 0.151 0.014 0.128 0.022 0.136 0.115 0.098 0.086-0.036 0.096-0.033 0.068 0.023-0.024 0.049-0.012 0.060 0.054 0.047 0.106-0.021 0.221 0.067 0.184 0.141-0.018 0.036 0.016 0.068 0.096 0.091 0.154 0.045 0.236 0.012 0.155-0.064-0.033-0.031-0.063-0.108-0.067-0.173-0.011-0.19-0.019-0.21-0.082-0.21-0.058 0-0.179-0.237-0.179-0.35 0-0.030-0.031-0.068-0.069-0.084-0.040-0.017-0.078-0.104-0.089-0.207-0.011-0.097-0.033-0.187-0.049-0.199s-0.009-0.051 0.015-0.086c0.037-0.054 0.026-0.061-0.073-0.046-0.071 0.011-0.117 0-0.117-0.026 0-0.024 0.021-0.033 0.048-0.021 0.127 0.061 0.030-0.085-0.169-0.254-0.058-0.050-0.163-0.315-0.156-0.395 0.017-0.183-0.015-0.297-0.083-0.297-0.040 0-0.087-0.029-0.103-0.065s-0.057-0.090-0.090-0.121c-0.033-0.031-0.067-0.106-0.075-0.167s-0.054-0.167-0.102-0.235c-0.047-0.068-0.073-0.156-0.057-0.195s0.006-0.071-0.022-0.071c-0.028 0-0.051-0.042-0.051-0.093s-0.023-0.093-0.051-0.093c-0.028 0-0.037-0.017-0.021-0.037s-0.015-0.086-0.069-0.145-0.099-0.126-0.099-0.148c0-0.022-0.022-0.041-0.048-0.041s-0.048-0.038-0.048-0.085c0-0.047-0.019-0.101-0.043-0.12s-0.098-0.176-0.165-0.349c-0.097-0.249-0.11-0.325-0.065-0.369s0.044-0.049-0.006-0.025c-0.075 0.035-0.241-0.087-0.211-0.155 0.011-0.025-0.025-0.102-0.080-0.17s-0.1-0.171-0.1-0.228c0-0.056-0.032-0.121-0.071-0.144s-0.079-0.075-0.088-0.115-0.030-0.099-0.045-0.13c-0.091-0.188-0.121-0.301-0.097-0.37 0.017-0.049-0.003-0.095-0.054-0.124-0.045-0.025-0.083-0.099-0.085-0.165s-0.025-0.119-0.050-0.119-0.034-0.023-0.020-0.052c0.014-0.028-0.018-0.088-0.072-0.133-0.070-0.058-0.090-0.111-0.070-0.186 0.018-0.070 0.005-0.111-0.038-0.124-0.036-0.011-0.101-0.142-0.144-0.291s-0.111-0.309-0.15-0.356-0.060-0.099-0.046-0.116c0.014-0.017-0.008-0.083-0.048-0.146-0.072-0.112-0.071-0.324 0.003-0.46 0.028-0.052 0.010-0.065-0.090-0.065-0.079 0-0.125-0.020-0.125-0.056 0-0.031-0.018-0.056-0.040-0.056s-0.043-0.060-0.047-0.134c-0.004-0.074-0.030-0.156-0.059-0.183-0.060-0.056-0.105-0.245-0.097-0.403 0.003-0.060-0.019-0.12-0.049-0.135s-0.065-0.116-0.076-0.225c-0.031-0.29-0.030-0.338 0.010-0.433 0.028-0.067 0.016-0.090-0.059-0.105-0.097-0.020-0.097-0.022-0.133-0.496-0.014-0.192-0.039-0.284-0.087-0.32-0.018-0.014-0.033-0.103-0.033-0.198s-0.020-0.188-0.045-0.207c-0.037-0.029-0.057-0.264-0.048-0.573 0.001-0.031-0.022-0.131-0.050-0.222-0.076-0.248-0.092-0.458-0.038-0.509 0.027-0.026 0.031-0.075 0.010-0.111-0.051-0.087-0.068-0.788-0.018-0.788 0.021 0 0.009-0.046-0.028-0.103-0.041-0.064-0.062-0.195-0.054-0.343 0.013-0.248 0.055-0.349 0.131-0.313 0.024 0.012 0.031-0.005 0.015-0.036s-0.050-0.058-0.077-0.058c-0.028 0-0.023-0.024 0.011-0.056 0.048-0.045 0.046-0.056-0.011-0.056s-0.068-0.054-0.054-0.302c0.009-0.166 0.027-0.31 0.040-0.32s0.006-0.045-0.015-0.078-0.024-0.119-0.007-0.191zM1.216 27.204c0.012-0.025 0.089-0.044 0.173-0.042 0.102 0.003 0.12 0.010 0.056 0.023-0.053 0.010-0.123 0.035-0.157 0.057-0.071 0.045-0.102 0.029-0.072-0.037zM1.325 16.961c0.026 0 0.048-0.018 0.048-0.039s-0.022-0.029-0.048-0.016c-0.026 0.013-0.048 0.030-0.048 0.039s0.022 0.016 0.048 0.016zM1.455 27.381c0.094 0 0.205 0.066 0.205 0.121 0 0.017-0.027 0.019-0.060 0.003s-0.090-0.029-0.127-0.030c-0.104-0.002-0.121-0.094-0.018-0.094zM1.545 10.424c0.016-0.012 0.018-0.044 0.004-0.071-0.015-0.030-0.027-0.021-0.029 0.022-0.002 0.039 0.009 0.061 0.025 0.049zM1.612 27.288c0.026-0.013 0.048 0.003 0.048 0.035s-0.022 0.058-0.048 0.058c-0.026 0-0.048-0.016-0.048-0.035s0.022-0.045 0.048-0.058zM1.758 9.804c0.025 0 0.045-0.017 0.045-0.037s-0.034-0.037-0.075-0.037-0.061 0.017-0.045 0.037c0.016 0.020 0.050 0.037 0.075 0.037zM1.776 7.913c0.012 0 0.034-0.017 0.051-0.037s0.007-0.037-0.021-0.037-0.051 0.017-0.051 0.037c0 0.020 0.009 0.037 0.021 0.037zM2.245 7.826c0.033-0.010 0.006-0.019-0.060-0.019s-0.093 0.008-0.060 0.019c0.033 0.010 0.087 0.010 0.12 0zM2.616 7.394c0.026 0 0.047-0.029 0.047-0.065-0.001-0.055-0.007-0.057-0.047-0.009-0.058 0.070-0.058 0.074 0 0.074zM2.964 24.233c0.078-0.060 0.005-0.095-0.077-0.036-0.039 0.028-0.049 0.056-0.023 0.064s0.071-0.005 0.1-0.027zM2.903 6.708c0.026 0.013 0.048 0.005 0.048-0.016s-0.022-0.039-0.048-0.039c-0.026 0-0.048 0.007-0.048 0.016s0.022 0.027 0.048 0.039zM3.261 28.53c0.039 0 0.072-0.017 0.072-0.037s-0.032-0.037-0.072-0.037-0.072 0.017-0.072 0.037c0 0.020 0.032 0.037 0.072 0.037zM5.007 29.791c0.026 0 0.048-0.007 0.048-0.016s-0.021-0.027-0.048-0.039c-0.026-0.013-0.048-0.005-0.048 0.016s0.021 0.039 0.048 0.039zM7.421 29.605c0.039 0 0.072-0.017 0.072-0.037s-0.032-0.037-0.072-0.037-0.072 0.017-0.072 0.037c0 0.020 0.032 0.037 0.072 0.037zM7.514 1.349c0.012 0 0.034-0.017 0.051-0.037s0.007-0.037-0.021-0.037c-0.028 0-0.051 0.017-0.051 0.037s0.009 0.037 0.021 0.037zM7.565 29.828c0.039 0 0.072-0.017 0.072-0.037s0.036-0.037 0.080-0.037c0.044 0 0.066-0.010 0.050-0.023-0.043-0.033-0.273 0.018-0.273 0.061 0 0.020 0.032 0.036 0.072 0.036zM7.779 28.494c0.059-0.075 0.010-0.122-0.069-0.066-0.042 0.029-0.049 0.059-0.019 0.083s0.061 0.018 0.089-0.017zM7.702 28.823c0.069 0.045 0.221 0.019 0.221-0.037 0-0.018-0.032-0.033-0.072-0.033s-0.072-0.027-0.072-0.060c0-0.049-0.013-0.052-0.072-0.014-0.089 0.057-0.090 0.090-0.006 0.144zM7.745 31.242c0.047-0.037 0.041-0.041-0.027-0.021-0.047 0.014-0.074 0.035-0.059 0.046s0.053 0 0.086-0.025zM7.816 28.121c0.113-0.001 0.12-0.006 0.047-0.039-0.046-0.021-0.105-0.028-0.132-0.015-0.080 0.038-0.053 0.055 0.084 0.054zM7.926 29.309c0.054 0 0.085-0.017 0.069-0.037s-0.061-0.037-0.098-0.037c-0.038 0-0.069 0.017-0.069 0.037s0.044 0.037 0.098 0.037zM7.995 30.162c0.039 0 0.072-0.024 0.072-0.054 0-0.033-0.028-0.046-0.072-0.033-0.039 0.012-0.072 0.036-0.072 0.054s0.032 0.033 0.072 0.033zM8.235 0.681c0.040-0.026 0.063-0.055 0.051-0.064-0.033-0.026-0.124 0.027-0.124 0.071 0 0.025 0.027 0.022 0.073-0.007zM8.614 1.016c0.012 0 0.034-0.017 0.051-0.037s0.007-0.037-0.021-0.037c-0.028 0-0.051 0.017-0.051 0.037s0.009 0.037 0.021 0.037z"></path>
</symbol>
<symbol id="icon-application-line" viewBox="0 0 324 32">
<path fill="#6966ff" style="fill: var(--color1, #6966ff)" d="M164.531 0.722c-2.050 0.42-4.306 0.951-5.012 1.18s-2.782 0.786-4.612 1.236c-3.162 0.778-8.685 2.368-10.37 2.985-0.43 0.157-2.455 0.782-4.5 1.389s-3.988 1.23-4.318 1.385c-0.33 0.156-1.186 0.399-1.902 0.539-1.946 0.383-5.52 1.873-5.52 2.302 0 0.207-0.188 0.272-0.416 0.145-0.362-0.2-3.698 0.693-6.041 1.617-0.43 0.17-1.267 0.466-1.859 0.658s-1.076 0.51-1.076 0.708c0 0.198-0.488 0.359-1.085 0.359-0.971 0-5.959 1.537-7.791 2.402-1.234 0.582-6.56 2.581-7.059 2.65-0.263 0.036-0.6 0.175-0.75 0.309s-0.502 0.244-0.783 0.244-1.44 0.385-2.576 0.854c-2.938 1.216-5.132 2.044-5.587 2.108-0.215 0.030-0.744 0.174-1.174 0.32s-1.751 0.584-2.935 0.974c-1.184 0.39-2.504 0.844-2.935 1.009-2.951 1.128-11.188 1.266-13.305 0.222-0.646-0.318-1.47-0.579-1.83-0.581-0.725-0.002-2.279-1.58-2.279-2.314 0-0.256-0.308-0.615-0.685-0.799s-1.125-1.090-1.663-2.016c-0.538-0.926-1.454-2.43-2.036-3.344s-1.258-2.337-1.504-3.164-0.668-1.739-0.938-2.028c-0.52-0.556-1.045-1.592-1.233-2.432-0.062-0.278-1.048-1.281-2.191-2.229-2.064-1.712-2.098-1.725-5.013-1.828-1.614-0.057-3.111 0.017-3.326 0.166s-1.036 0.358-1.824 0.467c-1.824 0.25-8.937 2.728-8.937 3.113 0 0.16-0.435 0.29-0.967 0.29s-1.985 0.406-3.228 0.902c-1.244 0.496-3.776 1.442-5.627 2.101-2.809 1-7.515 3.060-16.396 7.177-0.753 0.349-1.846 1.039-2.429 1.533s-1.219 0.897-1.415 0.897c-0.196 0-0.783 0.301-1.306 0.669-0.812 0.571-1.229 0.622-2.869 0.348-1.843-0.308-1.963-0.278-3.016 0.754-0.745 0.73-1.097 1.452-1.097 2.251 0 0.647-0.3 1.644-0.667 2.216-0.647 1.009-0.638 1.079 0.293 2.303 1.455 1.912 1.841 1.799 6.211-1.817 1.882-1.557 3.163-1.996 3.163-1.082 0 0.172 0.264 0.313 0.587 0.313 0.697 0 0.758-0.407 0.144-0.957-0.629-0.563-0.225-1.249 1.081-1.836 0.618-0.277 1.388-0.692 1.71-0.921s1.82-0.996 3.326-1.705c1.507-0.709 3.179-1.51 3.718-1.781 2.058-1.037 8.632-3.66 9.171-3.66 0.311 0 0.666-0.145 0.789-0.323s0.75-0.427 1.393-0.553c0.643-0.126 1.17-0.375 1.17-0.552s0.274-0.323 0.609-0.323c0.335 0 1.614-0.447 2.843-0.992s2.754-1.109 3.389-1.252c0.636-0.143 2.042-0.622 3.125-1.064 1.675-0.685 4.727-1.592 8.322-2.476 2.882-0.708 5.974 0.159 5.974 1.676 0 0.429 0.44 1.238 0.978 1.798 0.548 0.57 0.978 1.457 0.978 2.014 0 0.548 0.176 0.996 0.392 0.996s0.391 0.289 0.391 0.641c0 0.352 0.439 1.417 0.977 2.365s0.977 1.854 0.978 2.015c0.001 0.16 0.662 1.023 1.469 1.917s1.82 2.019 2.25 2.5c1.289 1.441 4.664 4.212 5.137 4.218 0.243 0.003 0.643 0.224 0.889 0.489 0.976 1.053 7.71 1.649 11.779 1.042 1.418-0.211 6.172-1.473 6.832-1.814 0.206-0.106 0.752-0.229 1.215-0.274s2.494-0.706 4.516-1.47c2.022-0.764 4.117-1.506 4.655-1.647s1.242-0.448 1.565-0.682c0.323-0.233 1.468-0.67 2.544-0.971s4.51-1.484 7.631-2.629 7.171-2.6 9-3.234c1.829-0.634 3.494-1.291 3.698-1.46s0.645-0.307 0.978-0.305c0.513 0.001 8.319-2.554 10.781-3.529 0.43-0.171 2.176-0.709 3.878-1.198s3.313-1.048 3.578-1.246c0.266-0.197 0.634-0.328 0.818-0.291s0.599-0.023 0.922-0.133c0.323-0.111 3.404-1.018 6.848-2.016s6.84-2.036 7.546-2.307c0.707-0.271 1.708-0.492 2.225-0.492s1.396-0.155 1.953-0.345c1.676-0.571 6.13-1.102 7.302-0.872 1.918 0.377 3.2 3.39 3.175 7.462-0.003 0.515 0.172 1.133 0.39 1.374s0.276 0.438 0.13 0.438c-0.146 0 0.008 0.35 0.343 0.779s0.609 1.142 0.609 1.586c0 1.184 2.088 4.679 3.4 5.692 2.36 1.821 3.822 2.238 7.771 2.218 2.303-0.012 3.901-0.18 4.262-0.448 0.318-0.236 0.72-0.35 0.894-0.254 0.32 0.177 6.746-1.135 8.914-1.819 1.147-0.362 7.049-2.086 7.826-2.286 0.215-0.055 1.096-0.216 1.957-0.357s1.917-0.387 2.348-0.546c0.792-0.293 5.052-1.24 6.848-1.522 0.538-0.084 2.299-0.407 3.913-0.716 4.303-0.824 5.486-0.92 11.74-0.949 5.334-0.025 5.797 0.027 7.728 0.875 1.13 0.496 2.054 1.127 2.054 1.403s0.352 0.601 0.783 0.723c0.43 0.122 0.782 0.369 0.782 0.549s0.254 0.327 0.565 0.327 0.796 0.296 1.079 0.658c0.437 0.558 1.803 1.641 4.617 3.66 1.511 1.084 3.847 2.067 6.59 2.773 2.646 0.681 3.938 0.773 11.020 0.781 4.412 0.005 11.544-0.128 15.848-0.294s9.675-0.324 11.935-0.35c2.26-0.026 4.32-0.169 4.579-0.319s0.963-0.189 1.565-0.088c0.602 0.101 2.416 0.276 4.030 0.388 4.719 0.328 5.556 0.42 7.826 0.861 2.404 0.467 4.304 0.071 4.304-0.895 0-0.831-1.799-2.27-2.839-2.27-0.505 0-1.088-0.153-1.298-0.34s-1.433-0.425-2.72-0.527c-1.286-0.103-3.131-0.33-4.099-0.504-1.934-0.348-20.642-0.231-27.785 0.175-9.981 0.567-20.782 0.174-22.936-0.834-0.406-0.19-1.179-0.517-1.717-0.725-1.812-0.703-4.859-2.411-5.007-2.807-0.080-0.215-0.384-0.392-0.674-0.392s-0.64-0.315-0.776-0.701c-0.137-0.385-0.477-0.701-0.756-0.701s-0.995-0.631-1.592-1.401c-0.733-0.946-1.377-1.401-1.984-1.401-0.542 0-0.993-0.267-1.136-0.671-0.374-1.054-6.995-2.678-10.381-2.547-0.538 0.021-1.696 0.038-2.573 0.039-1.772 0-9.453 0.864-12.492 1.403-1.076 0.191-3.542 0.762-5.478 1.268s-4.226 1.046-5.087 1.199c-1.632 0.291-6.942 1.717-9.979 2.68-0.968 0.307-2.113 0.603-2.544 0.658-1.017 0.129-5.366 1.252-5.861 1.514-0.21 0.111-2.111 0.266-4.224 0.343-4.852 0.179-5.97-0.188-6.974-2.284-0.785-1.639-1.636-5.616-1.304-6.096 0.11-0.159-0.055-0.648-0.366-1.087s-0.688-1.507-0.836-2.374c-0.148-0.867-0.606-2.098-1.016-2.735s-0.746-1.453-0.746-1.812c0-0.938-1.871-2.817-2.567-2.578-0.315 0.109-0.86-0.016-1.211-0.277-0.949-0.705-4.314-0.604-8.512 0.256zM4.835 25.383c-0.389 0.385-0.859 0.701-1.042 0.701s-0.114-0.315 0.155-0.701c0.269-0.385 0.738-0.701 1.042-0.701 0.425 0 0.389 0.162-0.155 0.701z"></path>
</symbol>
</defs>
</svg>
